<svg xmlns="http://www.w3.org/2000/svg" width="18" height="18" viewBox="0 0 18 18">
  <g id="correction" transform="translate(0 -0.002)">
    <path id="Path_9" data-name="Path 9" d="M15.364,2.639a9,9,0,1,0,0,12.727,9,9,0,0,0,0-12.727ZM9,16.947A7.945,7.945,0,1,1,16.946,9,7.954,7.954,0,0,1,9,16.947Z" transform="translate(0)" fill="#323232"/>
    <path id="Path_10" data-name="Path 10" d="M130.41,151.225l-5.938,6.275-2.463-2.6a.592.592,0,0,0-.817-.034.548.548,0,0,0-.035.792l2.889,3.052a.591.591,0,0,0,.852,0l6.364-6.723a.548.548,0,0,0-.035-.792.592.592,0,0,0-.817.034Z" transform="translate(-117.005 -146.043)" fill="#323232"/>
  </g>
</svg>
