<svg xmlns="http://www.w3.org/2000/svg" width="22.231" height="25.987" viewBox="0 0 22.231 25.987">
  <g id="graduation" transform="translate(0)">
    <path id="Path_24" data-name="Path 24" d="M20.611,6.548H32.945V1.523h1.244V5.888h1.523V1.523h1.345V0H16.5V1.523h4.111Zm0,0" transform="translate(-15.663)"/>
    <path id="Path_25" data-name="Path 25" d="M127.5,160.551a4.644,4.644,0,0,0,9.288,0V159H127.5Zm0,0" transform="translate(-121.029 -150.93)"/>
    <path id="Path_26" data-name="Path 26" d="M17.2,285.18,11.115,293.4,5.033,285.18A6.71,6.71,0,0,0,0,291.669v5.024H22.231v-5.024A6.71,6.71,0,0,0,17.2,285.18Zm0,0" transform="translate(0 -270.705)"/>
    <path id="Path_27" data-name="Path 27" d="M142.105,281.047h-.291a6.155,6.155,0,0,1-8.105,0h-.291l4.344,5.874Zm0,0" transform="translate(-126.646 -266.782)"/>
  </g>
</svg>
