<svg xmlns="http://www.w3.org/2000/svg" width="39" height="25" viewBox="0 0 39 25">
  <g id="Group_47" data-name="Group 47" transform="translate(-303 -218)">
    <rect id="Rectangle_29" data-name="Rectangle 29" width="39" height="25" rx="5" transform="translate(303 218)" fill="#f5f5f5"/>
    <g id="Group_42" data-name="Group 42" transform="translate(309.877 223.192)">
      <path id="Icon_awesome-star" data-name="Icon awesome-star" d="M7.384.442,5.759,3.737l-3.636.53a.8.8,0,0,0-.44,1.359l2.63,2.563L3.691,11.81a.8.8,0,0,0,1.155.839L8.1,10.939l3.253,1.71a.8.8,0,0,0,1.155-.839l-.622-3.621,2.63-2.563a.8.8,0,0,0-.44-1.359l-3.636-.53L8.812.442a.8.8,0,0,0-1.428,0Z" transform="translate(-1.441 1.33)" fill="#f5d20d"/>
      <text id="_5" data-name="5" transform="translate(17.09 12)" fill="#323232" font-size="12" font-family="SegoeUI, Segoe UI"><tspan x="0" y="0">5</tspan></text>
    </g>
  </g>
</svg>
