<svg id="info" xmlns="http://www.w3.org/2000/svg" width="24.136" height="24.136" viewBox="0 0 24.136 24.136">
  <g id="Group_27" data-name="Group 27">
    <g id="Group_26" data-name="Group 26">
      <path id="Path_17" data-name="Path 17" d="M12.068,0A12.068,12.068,0,1,0,24.136,12.068,12.061,12.061,0,0,0,12.068,0Zm0,22.452A10.384,10.384,0,1,1,22.452,12.068,10.4,10.4,0,0,1,12.068,22.452Z"/>
    </g>
  </g>
  <g id="Group_29" data-name="Group 29" transform="translate(11.226 9.598)">
    <g id="Group_28" data-name="Group 28">
      <path id="Path_18" data-name="Path 18" d="M238.982,203.609a.842.842,0,0,0-.842.842v6.9a.842.842,0,0,0,1.684,0v-6.9A.842.842,0,0,0,238.982,203.609Z" transform="translate(-238.14 -203.609)"/>
    </g>
  </g>
  <g id="Group_31" data-name="Group 31" transform="translate(11.226 5.95)">
    <g id="Group_30" data-name="Group 30">
      <path id="Path_19" data-name="Path 19" d="M238.982,126.214a.842.842,0,0,0-.842.842v1.01a.842.842,0,1,0,1.684,0v-1.01A.842.842,0,0,0,238.982,126.214Z" transform="translate(-238.14 -126.214)"/>
    </g>
  </g>
</svg>
