<svg xmlns="http://www.w3.org/2000/svg" width="24.044" height="30.303" viewBox="0 0 24.044 30.303">
  <g id="man-running-with-olympic-torch" transform="translate(-5.796)">
    <g id="Group_35" data-name="Group 35" transform="translate(5.796)">
      <circle id="Ellipse_9" data-name="Ellipse 9" cx="2.618" cy="2.618" r="2.618" transform="translate(5.856 4.233)" fill="#010002"/>
      <path id="Path_20" data-name="Path 20" d="M29.652,33.182Q26.6,28.007,23.561,22.833A1.861,1.861,0,0,0,23.4,22.6a3.256,3.256,0,0,0-.135-.3q-1.439-2.8-3.01-5.534c2.047-.653,3.919-.057,5.391,2,1.2,1.677,4,.069,2.785-1.628-2.848-3.99-7.1-4.98-11.351-2.455a1.686,1.686,0,0,0-.433.361q-.1.038-.191.083a1.691,1.691,0,0,0-.53.208c-2.645,1.57-5.1,1.273-6.938-1.3a1.626,1.626,0,0,0-1.11-.692l.046-1.858H6.82l.05,2.007A1.394,1.394,0,0,0,6.2,15.667c2.342,3.28,5.629,4.531,9.088,3.471q1.627,2.794,3.1,5.675a20.144,20.144,0,0,0-4.077,2.776,1.388,1.388,0,0,0-.122,2.069,1.574,1.574,0,0,0,.637.686l5,3c1.788,1.072,3.408-1.718,1.628-2.786l-3.23-1.939a14.518,14.518,0,0,1,3.337-1.689,1.775,1.775,0,0,0,.505-.275l4.8,8.155A1.615,1.615,0,0,0,29.652,33.182Z" transform="translate(-5.844 -5.286)" fill="#010002"/>
      <rect id="Rectangle_28" data-name="Rectangle 28" width="3.057" height="1.317" transform="translate(0 4.45)" fill="#010002"/>
      <path id="Path_21" data-name="Path 21" d="M8.309,3.966A2.3,2.3,0,0,0,8.92.528,1.179,1.179,0,0,1,8.15,1.742C9.1.954,7.656.8,8.413,0,5.243,1.024,6.832,3.966,6.832,3.966Z" transform="translate(-6.09)" fill="#010002"/>
    </g>
  </g>
</svg>
