<svg xmlns="http://www.w3.org/2000/svg" width="24.722" height="30.601" viewBox="0 0 24.722 30.601">
  <g id="settings-gear-icon" transform="translate(-13.646 -5)">
    <path id="Path_22" data-name="Path 22" d="M22.291,18.127c-.017.068-.035.138-.056.213l-.074.212c-.182.352-.708.881-2.181,1.4-.013.005-.652.252-1.516.682a14.748,14.748,0,0,0-3.126,2.03c-.02.015-1.838,1.39-1.683,5.048.01.265.03.54.064.829,0,.291.093.525.656.7a33.439,33.439,0,0,0,5.857,1.338v-.153a1.584,1.584,0,0,1,.93-1.446,1.574,1.574,0,0,1,.367-1.684l.788-.787A1.6,1.6,0,0,1,24,26.144a1.58,1.58,0,0,1,1.45-.934h1.116a1.582,1.582,0,0,1,1.448.933,1.6,1.6,0,0,1,.561-.1,1.566,1.566,0,0,1,1.121.464l.791.788a1.581,1.581,0,0,1,.364,1.681,1.579,1.579,0,0,1,.932,1.449v.153a33.366,33.366,0,0,0,5.857-1.338c.563-.175.657-.409.657-.7.034-.289.054-.562.064-.829.156-3.658-1.662-5.034-1.682-5.048a14.766,14.766,0,0,0-3.126-2.03c-.863-.43-1.5-.677-1.515-.682-1.473-.518-2-1.047-2.181-1.4l-.074-.212c-.021-.075-.039-.145-.056-.213l-.179-1.006,0-.049A7.556,7.556,0,0,0,30.689,15l.037-.056a3.8,3.8,0,0,0,.648-1.492c.308-.864.193-1.24.1-1.392L31.432,12l.022-.069a5.4,5.4,0,0,0-.244-4l-.018-.044a3.505,3.505,0,0,0-2.207-2.266A6.081,6.081,0,0,0,26.1,5h-.183a6.078,6.078,0,0,0-2.887.625,3.512,3.512,0,0,0-2.208,2.266l-.017.044a5.4,5.4,0,0,0-.244,4l.022.069-.039.062c-.1.151-.21.527.1,1.392a3.789,3.789,0,0,0,.648,1.492l.037.056a7.593,7.593,0,0,0,1.149,2.069l0,.049Z" transform="translate(0)"/>
    <path id="Path_23" data-name="Path 23" d="M45.653,71.889a.429.429,0,0,0-.379-.429l-.7-.117a3.6,3.6,0,0,0-.258-.623l.4-.567a.431.431,0,0,0-.029-.579l-.79-.789a.426.426,0,0,0-.3-.126.419.419,0,0,0-.265.091l-.575.41a3.684,3.684,0,0,0-.623-.259l-.114-.687a.431.431,0,0,0-.431-.388H40.474a.427.427,0,0,0-.428.378l-.116.7a3.625,3.625,0,0,0-.624.259l-.566-.4a.428.428,0,0,0-.271-.093.435.435,0,0,0-.307.123l-.79.789a.427.427,0,0,0-.036.571l.411.574a3.679,3.679,0,0,0-.258.623l-.687.115a.431.431,0,0,0-.389.431v1.116a.428.428,0,0,0,.379.429l.7.117a3.711,3.711,0,0,0,.258.623l-.4.566a.429.429,0,0,0,.028.579l.79.79a.432.432,0,0,0,.305.127.423.423,0,0,0,.265-.092l.575-.41a3.689,3.689,0,0,0,.624.258l.114.687a.433.433,0,0,0,.43.388h1.117a.427.427,0,0,0,.428-.378l.117-.7a3.626,3.626,0,0,0,.623-.258l.566.4a.427.427,0,0,0,.272.094.434.434,0,0,0,.306-.123l.79-.79a.427.427,0,0,0,.036-.571l-.41-.574a3.686,3.686,0,0,0,.258-.624l.685-.116a.428.428,0,0,0,.39-.428ZM41.032,74.3a1.848,1.848,0,1,1,1.849-1.848A1.85,1.85,0,0,1,41.032,74.3Z" transform="translate(-15.026 -41.466)"/>
  </g>
</svg>
