<svg id="_x34__4_" xmlns="http://www.w3.org/2000/svg" width="22.719" height="22.72" viewBox="0 0 22.719 22.72">
  <g id="Group_82" data-name="Group 82" transform="translate(0)">
    <path id="Path_210" data-name="Path 210" d="M22.51,21.484l-5.866-5.772a9.278,9.278,0,0,0,2.48-6.3A9.485,9.485,0,0,0,9.565,0,9.483,9.483,0,0,0,.006,9.407a9.483,9.483,0,0,0,9.559,9.407,9.613,9.613,0,0,0,6.017-2.1l5.889,5.795a.743.743,0,0,0,1.04,0A.716.716,0,0,0,22.51,21.484ZM9.565,17.366a8.025,8.025,0,0,1-8.088-7.96,8.025,8.025,0,0,1,8.088-7.96,8.025,8.025,0,0,1,8.088,7.96A8.025,8.025,0,0,1,9.565,17.366Z" transform="translate(-0.006)"/>
  </g>
</svg>
