<svg xmlns="http://www.w3.org/2000/svg" width="20.412" height="22.551" viewBox="0 0 20.412 22.551">
  <g id="bell_1_" data-name="bell (1)" transform="translate(-24.16 0)">
    <path id="Path_207" data-name="Path 207" d="M42.234,14.752a.585.585,0,0,1-.585-.585V10.036a7.3,7.3,0,0,0-5.115-6.954,2.3,2.3,0,1,0-4.338,0,7.3,7.3,0,0,0-5.113,6.953v4.131a.585.585,0,0,1-.585.585,2.338,2.338,0,0,0,0,4.677h5.455a2.493,2.493,0,1,0,4.826,0h5.455a2.338,2.338,0,0,0,0-4.677ZM33.39,2.3a.976.976,0,1,1,1.815.5,7.263,7.263,0,0,0-1.678,0,.969.969,0,0,1-.137-.5Zm2.141,17.754a1.165,1.165,0,1,1-2.145-.63h1.96A1.157,1.157,0,0,1,35.531,20.058Zm6.7-1.958H26.5a1.01,1.01,0,1,1,0-2.02,1.915,1.915,0,0,0,1.913-1.913V10.036a5.955,5.955,0,0,1,11.91,0v4.131a1.915,1.915,0,0,0,1.913,1.913,1.01,1.01,0,0,1,0,2.02Z"/>
  </g>
</svg>
