<svg xmlns="http://www.w3.org/2000/svg" width="70.574" height="73.034" viewBox="0 0 70.574 73.034">
  <g id="call" transform="translate(-8.626 0)">
    <path id="Path_192" data-name="Path 192" d="M240.262,55.964H217.589a3.956,3.956,0,0,1-3.944-3.944V49.843a3.956,3.956,0,0,1,3.944-3.944h22.673a3.956,3.956,0,0,1,3.944,3.944V52.02A3.956,3.956,0,0,1,240.262,55.964Z" transform="translate(-175.774 -39.352)" fill="#fed402"/>
    <path id="Path_193" data-name="Path 193" d="M383.348,19.34l-7.183,4.148-.62.357-7.8,4.505a1.493,1.493,0,0,1-2.239-1.292V9.038a1.493,1.493,0,0,1,2.239-1.292l3.4,1.962,4.4,2.543,7.8,4.5A1.493,1.493,0,0,1,383.348,19.34Z" transform="translate(-305.97 -6.468)" fill="#ffeb87"/>
    <path id="Path_194" data-name="Path 194" d="M308.194,223.643H285.521a3.956,3.956,0,0,1-3.944-3.944v-2.176a3.956,3.956,0,0,1,3.944-3.944h22.673a3.956,3.956,0,0,1,3.944,3.944V219.7A3.956,3.956,0,0,1,308.194,223.643Z" transform="translate(-234.016 -183.112)" fill="#d63030"/>
    <path id="Path_195" data-name="Path 195" d="M232.237,176.712v18.02A1.492,1.492,0,0,1,230,196.024l-15.606-9.011a1.492,1.492,0,0,1,0-2.583l7.8-4.505,4.507-2.6,3.3-1.9A1.492,1.492,0,0,1,232.237,176.712Z" transform="translate(-175.777 -150.224)" fill="#f44545"/>
    <path id="Path_196" data-name="Path 196" d="M63.464,89.428a7.574,7.574,0,0,1-7.25,7.051A24.728,24.728,0,0,1,33.547,83.54L19.71,57.955A24.706,24.706,0,0,1,21.2,32.026a7.566,7.566,0,0,1,5.589-3.241,7.725,7.725,0,0,1,3.166.382,7.836,7.836,0,0,1,4.5,4.115l2.7,4.994a5.468,5.468,0,0,1-2.209,7.411l-1.314.71a8.833,8.833,0,0,0-3.567,11.971L38.868,74.65a8.833,8.833,0,0,0,11.973,3.567l1.312-.71a5.47,5.47,0,0,1,7.413,2.209l2.992,5.532c.043.079.085.159.125.24l.024.049A7.546,7.546,0,0,1,63.464,89.428Z" transform="translate(-6.949 -24.654)" fill="#06638d"/>
    <path id="Path_197" data-name="Path 197" d="M90.954,85.536q-1.824.18-3.695.18A37.588,37.588,0,0,1,55.038,28.785a7.725,7.725,0,0,1,3.166.382,7.836,7.836,0,0,1,4.5,4.115l2.7,4.994a5.468,5.468,0,0,1-2.209,7.411l-1.314.71a8.833,8.833,0,0,0-3.567,11.971L67.116,74.65a8.833,8.833,0,0,0,11.973,3.567l1.312-.71a5.47,5.47,0,0,1,7.413,2.209l2.992,5.532c.043.079.085.159.125.24C90.938,85.5,90.946,85.52,90.954,85.536Z" transform="translate(-35.197 -24.654)" fill="#1b87b3"/>
    <path id="Path_198" data-name="Path 198" d="M412.03,32.347l-7.183,4.148a10.706,10.706,0,0,1-5.023-13.78l4.4,2.543,7.8,4.5A1.493,1.493,0,0,1,412.03,32.347Z" transform="translate(-334.652 -19.475)" fill="#ffe564"/>
    <path id="Path_199" data-name="Path 199" d="M227.283,193.6a11.529,11.529,0,0,1-5.937,10.085l-6.952-4.015a1.492,1.492,0,0,1,0-2.583l7.8-4.505,4.507-2.6A11.52,11.52,0,0,1,227.283,193.6Z" transform="translate(-175.777 -162.879)" fill="#fb5858"/>
    <path id="Path_200" data-name="Path 200" d="M35.532,84.556A23.74,23.74,0,0,1,27.524,75.9L13.638,50.227a23.7,23.7,0,0,1,1.432-24.889,6.568,6.568,0,0,1,11.177.617l2.84,5.251a1.076,1.076,0,0,0,1.893-1.024l-2.84-5.25a8.718,8.718,0,0,0-14.833-.826,25.849,25.849,0,0,0-1.561,27.145L25.632,76.925a25.887,25.887,0,0,0,8.735,9.44,1.076,1.076,0,1,0,1.165-1.809Z" transform="translate(0 -17.455)"/>
    <path id="Path_201" data-name="Path 201" d="M147.517,141.639a1.074,1.074,0,0,0-1.127,1.021,10.458,10.458,0,0,1-4.406,7.777c-1.2-2.86-4.115-4.674-6.8-4.033-2.361.557-4.017,3.278-3.021,5.518,1.188,2.673,4.917,3.08,8.314,1.764a7.411,7.411,0,0,1-1.124,3.983c-1.465,2.321-4.95,4.167-7.682,4.834a8.612,8.612,0,0,0-1.057-4.353l-3-5.551a6.561,6.561,0,0,0-8.895-2.651A9.866,9.866,0,0,1,113.7,151.6a7.788,7.788,0,0,1-6.858-4.084L98.01,131.18a7.788,7.788,0,0,1,3.144-10.555c.544-.414,3.748-1.351,4.591-5.012a1.075,1.075,0,1,0-2.1-.483c-.6,2.58-2.884,3.138-3.518,3.6a9.938,9.938,0,0,0-4.015,13.47l8.837,16.337a9.933,9.933,0,0,0,8.75,5.212,11.808,11.808,0,0,0,6.039-1.911,4.408,4.408,0,0,1,5.978,1.782l3,5.551a6.551,6.551,0,0,1-5.459,9.685,23.831,23.831,0,0,1-10.111-1.85,1.075,1.075,0,1,0-.835,1.982,25.958,25.958,0,0,0,11.026,2.018,8.628,8.628,0,0,0,7.979-6.234c3.555-.655,7.955-2.954,9.85-5.957a9.544,9.544,0,0,0,1.39-6.181,12.7,12.7,0,0,0,5.976-9.87A1.075,1.075,0,0,0,147.517,141.639Zm-10.67,10.632c-.509,0-2.212-.089-2.717-1.223a2.1,2.1,0,0,1,1.552-2.55c1.488-.344,3.56.686,4.413,3.021A8.591,8.591,0,0,1,136.847,152.271Z" transform="translate(-73.983 -97.992)"/>
    <path id="Path_202" data-name="Path 202" d="M211.124,17.688h16.641v2.9a2.569,2.569,0,0,0,3.853,2.223L247.224,13.8a2.568,2.568,0,0,0,0-4.448C230.684-.056,231.55,0,230.336,0a2.573,2.573,0,0,0-2.57,2.57v2.9H211.124a5.026,5.026,0,0,0-5.02,5.02v2.176A5.026,5.026,0,0,0,211.124,17.688ZM229.917,2.57a.417.417,0,0,1,.625-.361c16.155,9.482,15.814,8.87,15.814,9.371a.4.4,0,0,1-.208.361c-16.6,9.561-15.614,9.068-15.812,9.068a.421.421,0,0,1-.419-.419C229.917,17.1,229.917,6.647,229.917,2.57Zm-21.662,7.922a2.872,2.872,0,0,1,2.869-2.869h16.641v7.913H211.124a2.872,2.872,0,0,1-2.869-2.869V10.492Z" transform="translate(-169.309)"/>
    <path id="Path_203" data-name="Path 203" d="M247.428,178.966a1.075,1.075,0,0,0-1.076,1.076v.293a2.872,2.872,0,0,1-2.869,2.869H226.841V175.29h16.643a2.881,2.881,0,0,1,2.344,1.221,1.075,1.075,0,1,0,1.756-1.242,5.032,5.032,0,0,0-4.1-2.13H226.841v-2.9a2.568,2.568,0,0,0-3.851-2.223l-15.606,9.009a2.568,2.568,0,0,0,0,4.448c16.51,9.4,15.67,9.356,16.887,9.356a2.573,2.573,0,0,0,2.57-2.57v-2.9h16.643a5.026,5.026,0,0,0,5.02-5.02v-.293A1.076,1.076,0,0,0,247.428,178.966Zm-22.739,9.29a.421.421,0,0,1-.419.419c-.2,0,.8.5-15.811-9.068a.416.416,0,0,1,0-.722c16.633-9.582,15.615-9.068,15.812-9.068a.421.421,0,0,1,.417.419Z" transform="translate(-169.305 -143.749)"/>
  </g>
</svg>
