<svg id="Group_121" data-name="Group 121" xmlns="http://www.w3.org/2000/svg" width="24.112" height="24.111" viewBox="0 0 24.112 24.111">
  <g id="Group_117" data-name="Group 117" transform="translate(0 0)">
    <g id="Group_116" data-name="Group 116">
      <path id="Path_246" data-name="Path 246" d="M24.48,19.619,19.6,16.364a1.424,1.424,0,0,0-1.907.31L16.271,18.5a.608.608,0,0,1-.779.164l-.27-.149a16.343,16.343,0,0,1-4.259-3.345,16.409,16.409,0,0,1-3.346-4.259l-.148-.27a.608.608,0,0,1,.161-.782L9.455,8.438a1.425,1.425,0,0,0,.31-1.907L6.511,1.651a1.417,1.417,0,0,0-1.91-.43L2.56,2.447a2.879,2.879,0,0,0-1.313,1.7c-.735,2.678-.182,7.3,6.626,14.107,5.415,5.415,9.447,6.871,12.218,6.871a7.119,7.119,0,0,0,1.889-.247,2.876,2.876,0,0,0,1.7-1.313l1.227-2.04A1.417,1.417,0,0,0,24.48,19.619Zm-.263,1.5-1.224,2.041a2.077,2.077,0,0,1-1.226.95c-2.472.679-6.791.117-13.326-6.419S1.344,6.835,2.022,4.363a2.08,2.08,0,0,1,.951-1.227L5.014,1.911a.615.615,0,0,1,.829.186L7.611,4.752,9.1,6.978a.618.618,0,0,1-.134.828L7.134,9.227a1.406,1.406,0,0,0-.372,1.8l.145.264a17.046,17.046,0,0,0,3.483,4.444,17.064,17.064,0,0,0,4.444,3.483l.264.145a1.406,1.406,0,0,0,1.8-.372l1.421-1.827a.619.619,0,0,1,.828-.134l4.88,3.255A.614.614,0,0,1,24.217,21.117Z" transform="translate(-1 -1.018)" fill="#fff"/>
      <path id="Path_247" data-name="Path 247" d="M283.03,70.128a6.839,6.839,0,0,1,6.831,6.831.4.4,0,1,0,.8,0,7.643,7.643,0,0,0-7.634-7.634.4.4,0,0,0,0,.8Z" transform="translate(-269.367 -66.108)" fill="#fff"/>
      <path id="Path_248" data-name="Path 248" d="M283.03,121.328a4.425,4.425,0,0,1,4.42,4.42.4.4,0,1,0,.8,0,5.23,5.23,0,0,0-5.224-5.224.4.4,0,0,0,0,.8Z" transform="translate(-269.367 -114.897)" fill="#fff"/>
      <path id="Path_249" data-name="Path 249" d="M283.03,172.528a2.012,2.012,0,0,1,2.009,2.009.4.4,0,1,0,.8,0,2.816,2.816,0,0,0-2.813-2.813.4.4,0,0,0,0,.8Z" transform="translate(-269.367 -163.686)" fill="#fff"/>
    </g>
  </g>
</svg>
