<svg id="chat_1_" data-name="chat (1)" xmlns="http://www.w3.org/2000/svg" width="40" height="40" viewBox="0 0 40 40">
  <path id="Path_4156" data-name="Path 4156" d="M20,0A20.024,20.024,0,0,0,0,20V38.75A1.25,1.25,0,0,0,1.25,40H20A20,20,0,0,0,20,0Z" fill="#2196f3"/>
  <g id="Group_3907" data-name="Group 3907" transform="translate(10 15)">
    <path id="Path_4157" data-name="Path 4157" d="M139.25,290.5h-10a1.25,1.25,0,1,1,0-2.5h10a1.25,1.25,0,1,1,0,2.5Z" transform="translate(-128 -280.5)" fill="#fafafa"/>
    <path id="Path_4158" data-name="Path 4158" d="M146.75,194.5h-17.5a1.25,1.25,0,1,1,0-2.5h17.5a1.25,1.25,0,1,1,0,2.5Z" transform="translate(-128 -192)" fill="#fafafa"/>
  </g>
</svg>
