<svg xmlns="http://www.w3.org/2000/svg" width="17.868" height="22" viewBox="0 0 17.868 22">
  <g id="delete_1_" data-name="delete (1)" transform="translate(0.003 0.002)">
    <path id="Path_4150" data-name="Path 4150" d="M222.913,154.7a.515.515,0,0,0-.515.515v9.738a.515.515,0,0,0,1.03,0v-9.738A.515.515,0,0,0,222.913,154.7Zm0,0" transform="translate(-210.943 -146.734)" fill="#ff4848"/>
    <path id="Path_4151" data-name="Path 4151" d="M104.913,154.7a.515.515,0,0,0-.515.515v9.738a.515.515,0,0,0,1.03,0v-9.738A.515.515,0,0,0,104.913,154.7Zm0,0" transform="translate(-99.022 -146.734)" fill="#ff4848"/>
    <path id="Path_4152" data-name="Path 4152" d="M1.46,6.548V19.242a2.843,2.843,0,0,0,.756,1.96,2.537,2.537,0,0,0,1.841.8H13.8a2.537,2.537,0,0,0,1.841-.8,2.843,2.843,0,0,0,.756-1.96V6.548a1.968,1.968,0,0,0-.5-3.87H13.259V2.034A2.024,2.024,0,0,0,11.218,0H6.643A2.024,2.024,0,0,0,4.6,2.034v.644H1.965a1.968,1.968,0,0,0-.5,3.87ZM13.8,20.968H4.057A1.632,1.632,0,0,1,2.49,19.242V6.593h12.88V19.242A1.632,1.632,0,0,1,13.8,20.968ZM5.633,2.034a.993.993,0,0,1,1.01-1h4.575a.993.993,0,0,1,1.01,1v.644H5.633ZM1.965,3.708H15.9a.927.927,0,1,1,0,1.855H1.965a.927.927,0,0,1,0-1.855Zm0,0" transform="translate(0 0)" fill="#ff4848"/>
    <path id="Path_4153" data-name="Path 4153" d="M163.913,154.7a.515.515,0,0,0-.515.515v9.738a.515.515,0,0,0,1.03,0v-9.738A.515.515,0,0,0,163.913,154.7Zm0,0" transform="translate(-154.983 -146.734)" fill="#ff4848"/>
  </g>
</svg>
