<svg xmlns="http://www.w3.org/2000/svg" width="18.636" height="28.063" viewBox="0 0 18.636 28.063">
  <g id="femenine" transform="translate(-85.999 0)">
    <g id="Group_3842" data-name="Group 3842" transform="translate(85.999 0)">
      <path id="Path_4144" data-name="Path 4144" d="M101.909,15.9a9.334,9.334,0,1,0-7.689,2.661v3.12H92.027a1.1,1.1,0,1,0,0,2.193h2.193v3.088a1.1,1.1,0,0,0,2.194,0V23.878h2.193a1.1,1.1,0,1,0,0-2.193H96.414v-3.12A9.278,9.278,0,0,0,101.909,15.9ZM90.277,14.354a7.128,7.128,0,1,1,10.082,0A7.133,7.133,0,0,1,90.277,14.354Z" transform="translate(-85.999 0)"/>
    </g>
  </g>
</svg>
