<svg xmlns="http://www.w3.org/2000/svg" width="24.857" height="23.754" viewBox="0 0 24.857 23.754">
  <g id="filter" transform="translate(-64.267 -80.334)">
    <path id="Path_3150" data-name="Path 3150" d="M88.152,82.507H73.342a3.016,3.016,0,0,0-5.791,0H65.239a1.015,1.015,0,0,0,0,2.028h2.312a3.016,3.016,0,0,0,5.791,0H88.152a1.015,1.015,0,0,0,0-2.028ZM70.447,84.679a1.159,1.159,0,1,1,1.111-1.158A1.137,1.137,0,0,1,70.447,84.679Z" transform="translate(0)"/>
    <path id="Path_3151" data-name="Path 3151" d="M88.152,211.04H85.84a3.016,3.016,0,0,0-5.791,0H65.239a1.015,1.015,0,0,0,0,2.028H80.049a3.016,3.016,0,0,0,5.791,0h2.312a1.015,1.015,0,0,0,0-2.028Zm-5.207,2.173a1.159,1.159,0,1,1,1.111-1.158A1.137,1.137,0,0,1,82.944,213.212Z" transform="translate(0 -119.843)"/>
    <path id="Path_3152" data-name="Path 3152" d="M88.152,339.573H77.508a3.016,3.016,0,0,0-5.791,0H65.239a1.015,1.015,0,0,0,0,2.028h6.478a3.016,3.016,0,0,0,5.791,0H88.152a1.015,1.015,0,0,0,0-2.028Zm-13.539,2.173a1.159,1.159,0,1,1,1.111-1.158A1.137,1.137,0,0,1,74.613,341.745Z" transform="translate(0 -239.685)"/>
  </g>
</svg>
