<svg xmlns="http://www.w3.org/2000/svg" width="24.328" height="24.313" viewBox="0 0 24.328 24.313">
  <g id="gps_1_" data-name="gps (1)" transform="translate(0 0)">
    <path id="Path_4148" data-name="Path 4148" d="M172.863,168.7A4.141,4.141,0,1,0,177,172.84,4.146,4.146,0,0,0,172.863,168.7Zm0,0" transform="translate(-160.706 -160.683)"/>
    <path id="Path_4149" data-name="Path 4149" d="M23.616,11.444H21a8.885,8.885,0,0,0-8.13-8.129V.713a.713.713,0,1,0-1.425,0v2.6a8.885,8.885,0,0,0-8.13,8.129H.712a.713.713,0,0,0,0,1.425h2.6A8.885,8.885,0,0,0,11.445,21v2.6a.713.713,0,1,0,1.425,0V21A8.885,8.885,0,0,0,21,12.87h2.616a.713.713,0,0,0,0-1.425ZM12.157,19.6A7.446,7.446,0,1,1,19.6,12.157,7.454,7.454,0,0,1,12.157,19.6Zm0,0"/>
  </g>
</svg>
