<svg xmlns="http://www.w3.org/2000/svg" width="77.349" height="77.33" viewBox="0 0 77.349 77.33">
  <g id="Group_74" data-name="Group 74" transform="translate(22796 8527)">
    <g id="astrology" transform="translate(-22796 -8527)">
      <path id="Path_110" data-name="Path 110" d="M342.634,114.417a5.444,5.444,0,1,1-5.443-5.444A5.444,5.444,0,0,1,342.634,114.417Zm0,0" transform="translate(-281.629 -92.586)" fill="#ff671a"/>
      <path id="Path_111" data-name="Path 111" d="M201.394,190.3A11.795,11.795,0,1,1,189.6,178.5,11.795,11.795,0,0,1,201.394,190.3Zm0,0" transform="translate(-150.943 -151.612)" fill="#f3e406"/>
      <g id="Group_73" data-name="Group 73" transform="translate(26.861 27.829)">
        <path id="Path_112" data-name="Path 112" d="M184.056,239.012a3.125,3.125,0,1,1-3.125-3.126A3.125,3.125,0,0,1,184.056,239.012Zm0,0" transform="translate(-177.805 -228.155)" fill="#ff9800"/>
        <path id="Path_113" data-name="Path 113" d="M265.122,184.707a4.213,4.213,0,1,0,4.636,4.192,4.275,4.275,0,0,0-.064-.732Zm0,0" transform="translate(-248.713 -184.707)" fill="#ff9800"/>
        <path id="Path_114" data-name="Path 114" d="M276.254,282.719a4.213,4.213,0,1,0-6.338,4.958Zm0,0" transform="translate(-254.461 -265.604)" fill="#ff9800"/>
      </g>
      <path id="Path_115" data-name="Path 115" d="M32.631,386.929a9.073,9.073,0,1,1-9.073-9.073A9.072,9.072,0,0,1,32.631,386.929Zm0,0" transform="translate(-12.297 -320.847)" fill="#0aafe2"/>
      <path id="Path_116" data-name="Path 116" d="M181.1,195.109a13.244,13.244,0,0,0,4.136-.659c.02-.006.041-.012.061-.019a13.374,13.374,0,0,0,7.021-5.478,1.606,1.606,0,0,0,.115-.184,13.28,13.28,0,0,0-.9-15.212,1.5,1.5,0,0,0-.163-.2A13.377,13.377,0,0,0,186.4,169.6a1.557,1.557,0,0,0-.179-.077,13.307,13.307,0,1,0-5.123,25.587Zm-8.669-14.92a1.613,1.613,0,1,1-1.613,1.613A1.615,1.615,0,0,1,172.431,180.189Zm12.655,11.091a2.7,2.7,0,1,1,4.248-3.325,10.345,10.345,0,0,1-4.248,3.325Zm3.748-16.243c0,.033,0,.067,0,.1a2.7,2.7,0,1,1-3.334-2.624,10.34,10.34,0,0,1,3.33,2.525ZM181.1,171.52c.194,0,.387.006.577.017a5.727,5.727,0,1,0,9.136,6.9,10.244,10.244,0,0,1,0,6.724,5.718,5.718,0,0,0-8.809,6.884c-.3.027-.6.042-.908.042a10.292,10.292,0,0,1-9.188-5.675,4.7,4.7,0,0,0,.519.03,4.638,4.638,0,1,0,0-9.275,4.711,4.711,0,0,0-.519.03,10.291,10.291,0,0,1,9.188-5.674Zm0,0" transform="translate(-142.444 -143.116)"/>
      <path id="Path_117" data-name="Path 117" d="M328.694,112.877a6.956,6.956,0,1,0-6.956-6.956A6.964,6.964,0,0,0,328.694,112.877Zm0-10.888a3.932,3.932,0,1,1-3.931,3.932A3.936,3.936,0,0,1,328.694,101.989Zm0,0" transform="translate(-273.132 -84.09)"/>
      <path id="Path_118" data-name="Path 118" d="M15.061,367.848a10.585,10.585,0,1,0,10.585,10.585A10.6,10.6,0,0,0,15.061,367.848Zm0,18.146a7.538,7.538,0,0,1-5.485-2.365h3.269a1.512,1.512,0,1,0,0-3.024H7.82a7.558,7.558,0,0,1,13.558-6.32H18.663a1.512,1.512,0,0,0,0,3.024h3.875a7.562,7.562,0,0,1-7.477,8.684Zm0,0" transform="translate(-3.801 -312.352)"/>
      <path id="Path_119" data-name="Path 119" d="M49.845,410.461a1.513,1.513,0,1,0,1.069.443A1.524,1.524,0,0,0,49.845,410.461Zm0,0" transform="translate(-41.031 -348.527)"/>
      <path id="Path_120" data-name="Path 120" d="M18.045,341.963a1.512,1.512,0,0,0,2.8-1.154l-.055-.135a1.512,1.512,0,1,0-2.8,1.145Zm0,0" transform="translate(-15.173 -288.486)"/>
      <path id="Path_121" data-name="Path 121" d="M8.61,301.954l-.032-.142a1.512,1.512,0,1,0-2.951.664l.035.152A1.512,1.512,0,0,0,7.135,303.8a1.554,1.554,0,0,0,.339-.038,1.512,1.512,0,0,0,1.137-1.812Zm0,0" transform="translate(-4.746 -255.29)"/>
      <path id="Path_122" data-name="Path 122" d="M1.61,263.208a1.513,1.513,0,0,0,1.421-1.6l-.008-.142a1.512,1.512,0,1,0-3.02.16l.009.159a1.512,1.512,0,0,0,1.508,1.423l.09,0Zm0,0" transform="translate(-0.001 -220.827)"/>
      <path id="Path_123" data-name="Path 123" d="M2.4,222.237a1.508,1.508,0,0,0,1.664-1.344l.015-.141a1.512,1.512,0,1,0-3.006-.337l-.017.159A1.511,1.511,0,0,0,2.4,222.237Zm0,0" transform="translate(-0.89 -186.051)"/>
      <path id="Path_124" data-name="Path 124" d="M9.895,181.975a1.531,1.531,0,0,0,.409.056,1.513,1.513,0,0,0,1.455-1.1l.038-.137a1.512,1.512,0,1,0-2.907-.833l-.044.154A1.512,1.512,0,0,0,9.895,181.975Zm0,0" transform="translate(-7.462 -151.915)"/>
      <path id="Path_125" data-name="Path 125" d="M44.357,108.013a1.512,1.512,0,0,0,2.1-.378l.081-.116a1.512,1.512,0,0,0-2.472-1.742l-.093.132a1.512,1.512,0,0,0,.378,2.1Zm0,0" transform="translate(-37.105 -89.327)"/>
      <path id="Path_126" data-name="Path 126" d="M256.3,3.524l.145.006h.061a1.512,1.512,0,0,0,.058-3.023L256.411.5a1.512,1.512,0,1,0-.106,3.022Zm0,0" transform="translate(-216.345 -0.5)"/>
      <path id="Path_127" data-name="Path 127" d="M215.422,5.31a1.487,1.487,0,0,0,.2-.013l.143-.018a1.512,1.512,0,1,0-.376-3l-.158.02a1.512,1.512,0,0,0,.194,3.012Zm0,0" transform="translate(-181.596 -1.999)"/>
      <path id="Path_128" data-name="Path 128" d="M137.32,28.89a1.5,1.5,0,0,0,.675-.16l.13-.064a1.512,1.512,0,0,0-1.342-2.71l-.14.07a1.512,1.512,0,0,0,.677,2.865Zm0,0" transform="translate(-115.29 -21.976)"/>
      <path id="Path_129" data-name="Path 129" d="M102.346,50.092a1.508,1.508,0,0,0,.892-.292l.117-.086a1.512,1.512,0,1,0-1.776-2.448l-.126.092a1.512,1.512,0,0,0,.893,2.733Zm0,0" transform="translate(-85.6 -39.957)"/>
      <path id="Path_130" data-name="Path 130" d="M71.362,76.806a1.509,1.509,0,0,0,1.081-.454l.1-.1a1.512,1.512,0,0,0-2.155-2.123l-.109.112a1.512,1.512,0,0,0,1.081,2.57Zm0,0" transform="translate(-59.297 -62.62)"/>
      <path id="Path_131" data-name="Path 131" d="M296.742,8.343l.141.029a1.512,1.512,0,0,0,.62-2.96l-.155-.032a1.512,1.512,0,0,0-.606,2.963Zm0,0" transform="translate(-250.886 -4.617)"/>
      <path id="Path_132" data-name="Path 132" d="M24.017,143.533a1.512,1.512,0,0,0,2.013-.722l.061-.129a1.512,1.512,0,0,0-2.728-1.307l-.069.145a1.512,1.512,0,0,0,.722,2.013Zm0,0" transform="translate(-19.653 -119.363)"/>
      <path id="Path_133" data-name="Path 133" d="M386.065,449.249l-.123.085a1.512,1.512,0,1,0,1.72,2.488l.125-.087a1.512,1.512,0,0,0-1.722-2.486Zm0,0" transform="translate(-327.083 -381.227)"/>
      <path id="Path_134" data-name="Path 134" d="M417.57,423.336l-.105.1a1.512,1.512,0,1,0,2.1,2.171l.112-.108a1.512,1.512,0,0,0-2.111-2.165Zm0,0" transform="translate(-354.007 -359.092)"/>
      <path id="Path_135" data-name="Path 135" d="M491.948,239.548l0,.142a1.513,1.513,0,0,0,1.511,1.468h.045a1.512,1.512,0,0,0,1.467-1.556l-.005-.16a1.512,1.512,0,0,0-3.023.107Zm0,0" transform="translate(-417.627 -202.105)"/>
      <path id="Path_136" data-name="Path 136" d="M487.191,199.1l.029.144a1.512,1.512,0,1,0,2.965-.594l-.031-.152a1.512,1.512,0,1,0-2.964.6Zm0,0" transform="translate(-413.564 -167.557)"/>
      <path id="Path_137" data-name="Path 137" d="M335.836,19.837l.138.054a1.512,1.512,0,0,0,1.1-2.816l-.145-.057a1.512,1.512,0,0,0-1.1,2.819Zm0,0" transform="translate(-284.282 -14.435)"/>
      <path id="Path_138" data-name="Path 138" d="M436.6,90.523a1.512,1.512,0,0,0,.191-2.13l-.1-.122a1.512,1.512,0,1,0-2.31,1.951l.092.11a1.512,1.512,0,0,0,2.13.191Zm0,0" transform="translate(-368.452 -74.556)"/>
      <path id="Path_139" data-name="Path 139" d="M467.807,357.162a1.513,1.513,0,0,0-2.031.671l-.065.13a1.512,1.512,0,1,0,2.7,1.37l.071-.141a1.512,1.512,0,0,0-.671-2.03Zm0,0" transform="translate(-395.215 -303.143)"/>
      <path id="Path_140" data-name="Path 140" d="M491.584,278.921a1.512,1.512,0,0,0-1.694,1.3l-.019.141a1.512,1.512,0,1,0,3,.408l.021-.159a1.513,1.513,0,0,0-1.3-1.695Zm0,0" transform="translate(-415.853 -236.848)"/>
      <path id="Path_141" data-name="Path 141" d="M482.987,319.017a1.512,1.512,0,0,0-1.89,1l-.043.139a1.512,1.512,0,1,0,2.887.9l.047-.15a1.512,1.512,0,0,0-1-1.89Zm0,0" transform="translate(-408.322 -270.841)"/>
      <path id="Path_142" data-name="Path 142" d="M475.767,160.009l.051.133a1.512,1.512,0,1,0,2.828-1.073l-.057-.149a1.512,1.512,0,0,0-2.821,1.089Zm0,0" transform="translate(-403.805 -134.165)"/>
      <path id="Path_143" data-name="Path 143" d="M446.5,392.256a1.513,1.513,0,0,0-2.114.325l-.086.117a1.512,1.512,0,1,0,2.431,1.8l.093-.126A1.512,1.512,0,0,0,446.5,392.256Zm0,0" transform="translate(-376.931 -332.824)"/>
      <path id="Path_144" data-name="Path 144" d="M175.366,13.813a1.512,1.512,0,0,0,.442-.066l.139-.042a1.512,1.512,0,1,0-.872-2.9l-.15.045a1.512,1.512,0,0,0,.441,2.959Zm0,0" transform="translate(-147.59 -9.196)"/>
      <path id="Path_145" data-name="Path 145" d="M231.765,492.309l-.146-.009a1.512,1.512,0,1,0-.191,3.018l.156.009.092,0a1.512,1.512,0,0,0,.089-3.021Zm0,0" transform="translate(-195.263 -418)"/>
      <path id="Path_146" data-name="Path 146" d="M191.455,486.376l-.141-.032a1.512,1.512,0,1,0-.69,2.944l.154.036a1.529,1.529,0,0,0,.34.039,1.513,1.513,0,0,0,.337-2.987Zm0,0" transform="translate(-160.835 -412.912)"/>
      <path id="Path_147" data-name="Path 147" d="M372.46,37.7l.125.075a1.512,1.512,0,1,0,1.557-2.592l-.135-.081a1.512,1.512,0,1,0-1.547,2.6Zm0,0" transform="translate(-315.564 -29.695)"/>
      <path id="Path_148" data-name="Path 148" d="M152.7,473.809l-.132-.055a1.512,1.512,0,1,0-1.173,2.787l.147.061a1.512,1.512,0,1,0,1.158-2.794Zm0,0" transform="translate(-127.738 -402.157)"/>
      <path id="Path_149" data-name="Path 149" d="M272.491,491.436l-.143.015a1.512,1.512,0,0,0,.151,3.017,1.53,1.53,0,0,0,.154-.008l.158-.017a1.512,1.512,0,1,0-.319-3.007Zm0,0" transform="translate(-230.049 -417.262)"/>
      <path id="Path_150" data-name="Path 150" d="M350.735,469.6l-.129.061a1.512,1.512,0,1,0,1.278,2.741l.143-.067a1.512,1.512,0,1,0-1.291-2.735Zm0,0" transform="translate(-296.897 -398.61)"/>
      <path id="Path_151" data-name="Path 151" d="M312.518,483.8l-.139.039a1.512,1.512,0,1,0,.8,2.916l.152-.042a1.512,1.512,0,0,0-.815-2.913Zm0,0" transform="translate(-264.243 -410.74)"/>
      <path id="Path_152" data-name="Path 152" d="M405.6,61.391l.114.1a1.512,1.512,0,0,0,1.961-2.3l-.116-.1a1.512,1.512,0,1,0-1.959,2.3Zm0,0" transform="translate(-343.877 -49.93)"/>
      <path id="Path_153" data-name="Path 153" d="M458.064,123.516a1.512,1.512,0,1,0,2.61-1.529l-.081-.138a1.512,1.512,0,1,0-2.6,1.546Zm0,0" transform="translate(-388.622 -102.888)"/>
      <path id="Path_154" data-name="Path 154" d="M396.6,201.926a1.513,1.513,0,0,0,.979-1.9l-.023-.072a1.512,1.512,0,1,0-2.88.922l.023.072a1.512,1.512,0,0,0,1.9.98Zm0,0" transform="translate(-334.986 -168.928)"/>
      <path id="Path_155" data-name="Path 155" d="M211.2,97.463a1.529,1.529,0,0,0,.351-.041l.14-.033a1.512,1.512,0,1,0-.682-2.946l-.159.037a1.512,1.512,0,0,0,.349,2.983Zm0,0" transform="translate(-178.009 -80.218)"/>
      <path id="Path_156" data-name="Path 156" d="M252.4,93.531l.142,0h.06a1.512,1.512,0,0,0,.058-3.023l-.164-.005a1.512,1.512,0,1,0-.1,3.023Zm0,0" transform="translate(-213.024 -76.91)"/>
      <path id="Path_157" data-name="Path 157" d="M403.359,242.389h.062a1.512,1.512,0,0,0,1.45-1.572l-.007-.162a1.512,1.512,0,1,0-3.021.14l.006.145A1.512,1.512,0,0,0,403.359,242.389Zm0,0" transform="translate(-341.134 -203.149)"/>
      <path id="Path_158" data-name="Path 158" d="M249.7,402.682l-.142,0a1.512,1.512,0,0,0,.019,3.024h.02l.164,0a1.512,1.512,0,1,0-.061-3.023Zm0,0" transform="translate(-210.59 -341.923)"/>
      <path id="Path_159" data-name="Path 159" d="M290.3,396.434l-.141.041a1.512,1.512,0,0,0,.419,2.965,1.53,1.53,0,0,0,.421-.06l.153-.045a1.512,1.512,0,0,0-.852-2.9Zm0,0" transform="translate(-245.398 -336.567)"/>
      <path id="Path_160" data-name="Path 160" d="M208.931,397.895l-.142-.036a1.512,1.512,0,1,0-.748,2.931l.155.039a1.5,1.5,0,0,0,.368.045,1.512,1.512,0,0,0,.366-2.979Zm0,0" transform="translate(-175.646 -337.789)"/>
      <path id="Path_161" data-name="Path 161" d="M327.866,379.691l-.12.074a1.512,1.512,0,0,0,1.572,2.584l.14-.087a1.512,1.512,0,1,0-1.593-2.571Zm0,0" transform="translate(-277.616 -322.213)"/>
      <path id="Path_162" data-name="Path 162" d="M359.761,353.669l-.1.1a1.512,1.512,0,0,0,2.195,2.081l.113-.12a1.512,1.512,0,0,0-2.209-2.065Zm0,0" transform="translate(-304.976 -299.908)"/>
      <path id="Path_163" data-name="Path 163" d="M401.109,282.351a1.512,1.512,0,0,0-2.953-.655l-.031.14a1.512,1.512,0,1,0,2.948.674Zm0,0" transform="translate(-337.947 -238.209)"/>
      <path id="Path_164" data-name="Path 164" d="M384.324,322.4a1.511,1.511,0,0,0,2.048-.616l.077-.145a1.512,1.512,0,1,0-2.674-1.413l-.067.126A1.512,1.512,0,0,0,384.324,322.4Zm0,0" transform="translate(-325.587 -271.242)"/>
      <path id="Path_165" data-name="Path 165" d="M172.515,112.121a1.508,1.508,0,0,0,.726-.186l.123-.067a1.512,1.512,0,0,0-1.432-2.664l-.145.079a1.512,1.512,0,0,0,.728,2.838Zm0,0" transform="translate(-145.168 -92.628)"/>
      <path id="Path_166" data-name="Path 166" d="M170.872,382.493l-.125-.071a1.512,1.512,0,1,0-1.5,2.625l.142.081a1.512,1.512,0,1,0,1.484-2.635Zm0,0" transform="translate(-143.031 -324.555)"/>
      <path id="Path_167" data-name="Path 167" d="M112.088,166.347l-.085.141a1.512,1.512,0,1,0,2.6,1.553l.073-.122a1.512,1.512,0,1,0-2.584-1.572Zm0,0" transform="translate(-94.9 -140.675)"/>
      <path id="Path_168" data-name="Path 168" d="M110.616,326.565a1.512,1.512,0,0,0,2.612-1.525l-.07-.119a1.512,1.512,0,1,0-2.626,1.5l.084.145Zm0,0" transform="translate(-93.664 -275.262)"/>
      <path id="Path_169" data-name="Path 169" d="M138.184,133.766l-.117.111a1.512,1.512,0,0,0,2.1,2.18l.105-.1a1.512,1.512,0,0,0-2.085-2.191Zm0,0" transform="translate(-116.815 -113.279)"/>
      <path id="Path_170" data-name="Path 170" d="M138.22,357.6l-.1-.1a1.512,1.512,0,0,0-2.132,2.145l.113.112a1.512,1.512,0,0,0,2.123-2.154Zm0,0" transform="translate(-115.062 -303.195)"/>
      <path id="Path_171" data-name="Path 171" d="M89.723,246.282a1.512,1.512,0,0,0,1.5,1.521h.009a1.512,1.512,0,0,0,1.512-1.5v-.145a1.512,1.512,0,0,0-1.494-1.53h-.018a1.512,1.512,0,0,0-1.512,1.495Zm0,0" transform="translate(-76.168 -207.745)"/>
      <path id="Path_172" data-name="Path 172" d="M96.533,206.724a1.513,1.513,0,0,0,1.863-1.05l.04-.142a1.512,1.512,0,1,0-2.91-.824l-.043.153A1.513,1.513,0,0,0,96.533,206.724Zm0,0" transform="translate(-81.011 -172.924)"/>
      <path id="Path_173" data-name="Path 173" d="M97.7,287.046l-.035-.135a1.512,1.512,0,1,0-2.929.751l.042.162a1.513,1.513,0,0,0,1.46,1.124,1.539,1.539,0,0,0,.391-.051A1.513,1.513,0,0,0,97.7,287.046Zm0,0" transform="translate(-80.381 -242.677)"/>
      <path id="Path_174" data-name="Path 174" d="M293.145,100.331l.072.022a1.512,1.512,0,1,0,.9-2.889l-.073-.022a1.512,1.512,0,0,0-.895,2.889Zm0,0" transform="translate(-247.955 -82.739)"/>
    </g>
  </g>
</svg>
