<svg id="Group_3720" data-name="Group 3720" xmlns="http://www.w3.org/2000/svg" width="17.408" height="17.728" viewBox="0 0 17.408 17.728">
  <g id="Group_119" data-name="Group 119" transform="translate(0 0)">
    <g id="Group_110" data-name="Group 110">
      <g id="Group_109" data-name="Group 109">
        <path id="Path_240" data-name="Path 240" d="M12.11,0s-.014,0-.028,0A8.7,8.7,0,0,0,5.261,14.121L3.993,17.066a.473.473,0,0,0,.247.622.483.483,0,0,0,.271.033l4.65-.817a8.38,8.38,0,0,0,2.9.5A8.7,8.7,0,0,0,12.11,0Zm-.047,16.463a7.624,7.624,0,0,1-2.684-.489.455.455,0,0,0-.252-.024l-3.914.684,1.035-2.408a.478.478,0,0,0-.076-.5,7.594,7.594,0,0,1-1.32-2.194A7.755,7.755,0,1,1,19.829,8.664v.028A7.776,7.776,0,0,1,12.063,16.463Z" transform="translate(-3.366)" fill="#323232"/>
      </g>
    </g>
    <g id="Group_112" data-name="Group 112" transform="translate(5.287 7.032)">
      <g id="Group_111" data-name="Group 111" transform="translate(0)">
        <path id="Path_241" data-name="Path 241" d="M117.706,146.7h-2.565a.475.475,0,1,0,0,.95h2.565a.475.475,0,0,0,0-.95Z" transform="translate(-114.666 -146.7)" fill="#323232"/>
      </g>
    </g>
    <g id="Group_114" data-name="Group 114" transform="translate(5.287 9.407)">
      <g id="Group_113" data-name="Group 113" transform="translate(0)">
        <path id="Path_242" data-name="Path 242" d="M121.031,196.7h-5.89a.475.475,0,1,0,0,.95h5.89a.475.475,0,1,0,0-.95Z" transform="translate(-114.666 -196.7)" fill="#323232"/>
      </g>
    </g>
  </g>
</svg>
