<svg xmlns="http://www.w3.org/2000/svg" width="72.689" height="66.779" viewBox="0 0 72.689 66.779">
  <g id="Group_78" data-name="Group 78" transform="translate(22459 8444)">
    <g id="chat-box" transform="translate(-22459 -8444)">
      <g id="Group_77" data-name="Group 77" transform="translate(0.985 1.067)">
        <path id="Path_175" data-name="Path 175" d="M33.573,28.27c-14.718,0-26.648,8.013-26.648,17.9,0,7.268,6.452,13.524,15.719,16.326v6.954a.711.711,0,0,0,1.292.412L28.3,63.711a39.5,39.5,0,0,0,5.275.351c14.718,0,25.225-8.013,25.225-17.9s-10.508-17.9-25.225-17.9Z" transform="translate(-6.925 -28.27)" fill="#ff4d57"/>
        <path id="Path_176" data-name="Path 176" d="M174.052,28.27q-1.078,0-2.134.057c12.772.68,23.009,7.407,24.361,15.919a1.429,1.429,0,0,1-1.49,1.657q-.854-.045-1.725-.046c-12.346,0-22.355,6.722-22.355,15.013a10.321,10.321,0,0,0,.386,2.786c.02.1.043.2.065.3q1.425.1,2.893.106c14.718,0,26.648-8.013,26.648-17.9s-11.931-17.9-26.648-17.9Z" transform="translate(-147.403 -28.27)" fill="#ff3a48"/>
        <path id="Path_177" data-name="Path 177" d="M212.063,173.87c12.346,0,20.932,6.722,20.932,15.013,0,6.1-3.989,11.345-11.763,13.7v5.474a.711.711,0,0,1-1.292.412l-3.452-4.863a33.123,33.123,0,0,1-4.425.295c-12.346,0-22.355-6.722-22.355-15.013s10.009-15.013,22.355-15.013Z" transform="translate(-163.7 -153.153)" fill="#3aa5ff"/>
        <path id="Path_178" data-name="Path 178" d="M205.924,301.829a19.956,19.956,0,0,0-8.01,1.607c2.982,5.937,11.341,10.212,21.187,10.212q.564,0,1.122-.019a6.759,6.759,0,0,0,.3-1.994c0-5.416-6.537-9.806-14.6-9.806Z" transform="translate(-170.738 -262.904)" fill="#60b7ff"/>
        <g id="Group_75" data-name="Group 75" transform="translate(46.229 20.717)">
          <path id="Path_179" data-name="Path 179" d="M333.95,173.87q-1.08,0-2.134.068c11.345.722,20.221,7.137,20.221,14.945,0,5.688-4.711,10.638-11.656,13.185a2.343,2.343,0,0,0-1.531,2.2l2.977,4.195a.711.711,0,0,0,1.292-.412v-5.474c7.774-2.351,13.186-7.6,13.186-13.7C356.305,180.592,346.3,173.87,333.95,173.87Z" transform="translate(-331.816 -173.87)" fill="#60b7ff"/>
        </g>
        <path id="Path_180" data-name="Path 180" d="M156.191,321.829c-8.064,0-14.6,4.39-14.6,9.806,0,3.982,3.535,7.41,8.613,8.946v3.694a.427.427,0,0,0,.775.247l2.323-3.273a21.635,21.635,0,0,0,2.891.193c8.064,0,13.179-4.39,13.179-9.806S164.255,321.829,156.191,321.829Z" transform="translate(-122.428 -280.058)" fill="#fed402"/>
        <g id="Group_76" data-name="Group 76" transform="translate(31.984 41.771)">
          <path id="Path_181" data-name="Path 181" d="M233.486,321.829q-.9,0-1.779.073c7.225.589,12.823,4.722,12.823,9.733s-5.589,9.138-12.806,9.732c.578.047,1.165.074,1.762.074,8.064,0,14.6-4.39,14.6-9.806S241.55,321.829,233.486,321.829Z" transform="translate(-231.707 -321.829)" fill="#fac600"/>
        </g>
      </g>
      <g id="_x31_9_open_discussion_2_" transform="translate(0 0)">
        <path id="Path_182" data-name="Path 182" d="M127.2,149.937A1.067,1.067,0,1,0,126.128,151,1.067,1.067,0,0,0,127.2,149.937Z" transform="translate(-107.266 -130.643)"/>
        <path id="Path_183" data-name="Path 183" d="M188.266,149.937A1.067,1.067,0,1,0,187.2,151,1.067,1.067,0,0,0,188.266,149.937Z" transform="translate(-159.647 -130.643)"/>
        <path id="Path_184" data-name="Path 184" d="M249.337,149.937A1.067,1.067,0,1,0,248.27,151,1.067,1.067,0,0,0,249.337,149.937Z" transform="translate(-212.029 -130.643)"/>
        <path id="Path_185" data-name="Path 185" d="M287.678,280.4a1.067,1.067,0,1,0,1.067-1.067A1.067,1.067,0,0,0,287.678,280.4Z" transform="translate(-246.744 -242.539)"/>
        <path id="Path_186" data-name="Path 186" d="M338.75,280.4a1.067,1.067,0,1,0,1.067-1.067A1.067,1.067,0,0,0,338.75,280.4Z" transform="translate(-290.549 -242.539)"/>
        <path id="Path_187" data-name="Path 187" d="M389.821,280.4a1.067,1.067,0,1,0,1.067-1.067A1.067,1.067,0,0,0,389.821,280.4Z" transform="translate(-334.353 -242.539)"/>
        <path id="Path_188" data-name="Path 188" d="M195.061,391.474a1.067,1.067,0,1,0,1.067-1.067A1.067,1.067,0,0,0,195.061,391.474Z" transform="translate(-167.306 -337.811)"/>
        <path id="Path_189" data-name="Path 189" d="M236.132,391.474a1.067,1.067,0,1,0,1.067-1.067A1.067,1.067,0,0,0,236.132,391.474Z" transform="translate(-202.533 -337.811)"/>
        <path id="Path_190" data-name="Path 190" d="M279.337,391.474a1.067,1.067,0,1,0-1.067,1.067A1.067,1.067,0,0,0,279.337,391.474Z" transform="translate(-237.76 -337.811)"/>
        <path id="Path_191" data-name="Path 191" d="M64.52,45.344a1.067,1.067,0,0,0-1.081,1.84c4.522,2.657,7.116,6.441,7.116,10.384,0,5.416-4.878,10.392-12.428,12.675a1.067,1.067,0,0,0-.758,1.021v4.358l-2.806-3.953a1.067,1.067,0,0,0-1.013-.44,32.028,32.028,0,0,1-3.45.274,8.46,8.46,0,0,0-.952-2.282c-.142-.24-.3-.473-.46-.7-2.023-2.821-5.744-4.907-10.236-5.666a22.489,22.489,0,0,0-8.722.23,9.852,9.852,0,0,1-1.75-5.465s0,0,0,0v-.049c0-7.69,9.55-13.946,21.288-13.946q1.006,0,2.011.063A29.845,29.845,0,0,1,59.4,45.312a1.067,1.067,0,1,0,.719-2.01,30.577,30.577,0,0,0-5.044-1.315,13.31,13.31,0,0,0,.194-2.253c0-5.147-2.94-9.956-8.277-13.54A35.151,35.151,0,0,0,27.553,20.77C13.434,20.77,1.6,27.99.015,37.565a1.067,1.067,0,1,0,2.106.348c.666-4.036,3.562-7.788,8.153-10.566A33.8,33.8,0,0,1,27.553,22.9c14.106,0,25.581,7.549,25.581,16.829a11.188,11.188,0,0,1-.173,1.952,34.441,34.441,0,0,0-3.694-.2,29.661,29.661,0,0,0-16.4,4.578c-3.581,2.4-6.568,6.031-6.973,10.461-1.169-.05-2.333-.152-3.472-.306a1.067,1.067,0,0,0-1.013.44L17.69,61.9V56.06a1.067,1.067,0,0,0-.758-1.022,26.68,26.68,0,0,1-9.854-5.244,14.547,14.547,0,0,1-4.84-7.636,1.067,1.067,0,1,0-2.084.462A16.653,16.653,0,0,0,5.67,51.4a28.434,28.434,0,0,0,9.886,5.444v6.171a1.778,1.778,0,0,0,3.229,1.029l3.993-5.626c1.03.122,2.076.2,3.124.246A12.182,12.182,0,0,0,27.6,63.7a16.869,16.869,0,0,0-3.85,1.9C20.685,67.651,19,70.428,19,73.414c0,4.138,3.353,7.892,8.613,9.721v2.919a1.489,1.489,0,0,0,1.04,1.423,1.5,1.5,0,0,0,.457.071,1.489,1.489,0,0,0,1.216-.63l1.956-2.756a22.945,22.945,0,0,0,5.788-.13,1.067,1.067,0,1,0-.321-2.11,20.821,20.821,0,0,1-5.827.047,1.066,1.066,0,0,0-1.013.44l-1.161,1.636V82.36a1.067,1.067,0,0,0-.758-1.021c-4.771-1.443-7.854-4.553-7.854-7.924,0-2.252,1.351-4.4,3.8-6.048a15.364,15.364,0,0,1,4.593-2.033,21.523,21.523,0,0,1,6.44-.617A17.729,17.729,0,0,1,43.73,66.95c2.316,1.363,4.471,3.61,4.471,6.464,0,2.961-2.327,5.705-6.224,7.339a1.067,1.067,0,0,0,.825,1.968c4.629-1.941,7.426-5.329,7.528-9.094.959-.03,1.917-.1,2.861-.2l3.082,4.343a1.779,1.779,0,0,0,3.229-1.03V72.045c8.038-2.67,13.186-8.29,13.186-14.477,0-4.718-2.978-9.174-8.17-12.224Z" transform="translate(-0.001 -20.77)"/>
      </g>
    </g>
  </g>
</svg>
