<svg xmlns="http://www.w3.org/2000/svg" width="128.346" height="41.037" viewBox="0 0 128.346 41.037">
  <g id="Group_7595" data-name="Group 7595" transform="translate(-116.155 -264.346)">
    <path id="Path_7323" data-name="Path 7323" d="M1498.675,281.972c.03-.084.748-1.312,1.675-2.646,4.312-6.212,10.706-12.2,18.2-11.975l.005-.046a16.3,16.3,0,0,0-9.627,2.14c-4.811,2.593-9.5,7.535-12.061,11.333Z" transform="translate(-1281.96 4.366)" fill="#ffb126"/>
    <path id="Path_7324" data-name="Path 7324" d="M1703.732,194.689l.507-3.493-2.59-2.4a.485.485,0,0,1,.248-.834l3.479-.6,1.481-3.2a.485.485,0,0,1,.87-.023l1.643,3.125,3.505.418a.485.485,0,0,1,.29.82l-2.464,2.529.686,3.463a.485.485,0,0,1-.691.529l-3.166-1.562-3.081,1.722A.486.486,0,0,1,1703.732,194.689Z" transform="translate(-1468.803 80.466)" fill="#ffb126"/>
    <path id="Path_7335" data-name="Path 7335" d="M484.149,483.087c-.033-.094-.835-1.465-1.87-2.955-4.814-6.935-11.952-13.62-20.323-13.368l-.006-.051A18.2,18.2,0,0,1,472.7,469.1c5.37,2.9,10.6,8.412,13.466,12.652Z" transform="translate(-336.973 -177.705)" fill="#ffb126"/>
    <path id="Path_7336" data-name="Path 7336" d="M371.112,385.648l-.567-3.9,2.892-2.677a.542.542,0,0,0-.276-.932l-3.884-.667-1.653-3.578a.541.541,0,0,0-.971-.025l-1.834,3.488-3.914.467a.542.542,0,0,0-.324.916l2.75,2.822-.766,3.866a.541.541,0,0,0,.771.591l3.534-1.744,3.44,1.923A.542.542,0,0,0,371.112,385.648Z" transform="translate(-244.271 -92.75)" fill="#ffb126"/>
  </g>
</svg>
