<svg xmlns="http://www.w3.org/2000/svg" width="73.4" height="87.382" viewBox="0 0 73.4 87.382">
  <g id="Group_7576" data-name="Group 7576" transform="translate(0)">
    <g id="Group_7571" data-name="Group 7571" transform="translate(0 27.359)">
      <g id="Group_7569" data-name="Group 7569" transform="translate(40.546 0.419)">
        <path id="Path_7311" data-name="Path 7311" d="M1320.953,573.556c-1.964.387-9.807,10.9-9.807,10.9l-.277.728s14.191-1.578,14.7-2.185C1326.963,581.358,1322.567,573.239,1320.953,573.556Zm-9.707,11.121c2.589-3.31,8.489-8.143,9.764-9.169a16.088,16.088,0,0,1,3.08,6.138C1322.461,581.981,1315.387,584.176,1311.247,584.677Z" transform="translate(-1310.87 -573.547)" fill="#82c7e6"/>
      </g>
      <g id="Group_7570" data-name="Group 7570" transform="translate(21.685)">
        <path id="Path_7312" data-name="Path 7312" d="M1147.134,571.913c-3.861-2.518-4.921-2.5-6.046-1.861s-5.273,6.589-3.419,8.445,16.56,3.18,16.56,3.18l.331-.9S1150.993,574.431,1147.134,571.913Zm-6.909,5.93c-.857-.855,1.277-4.418,2.25-5.176.248-.14,10.142,6.156,11.523,8.306C1148.475,580.374,1141.023,578.551,1140.224,577.842Z" transform="translate(-1137.199 -569.691)" fill="#82c7e6"/>
      </g>
      <path id="Path_7313" data-name="Path 7313" d="M1282.914,661.384h.828a1.485,1.485,0,0,0,1.485-1.485v-2.435a1.485,1.485,0,0,0-1.485-1.485h-.828a1.484,1.484,0,0,0-1.484,1.485V659.9A1.484,1.484,0,0,0,1282.914,661.384Z" transform="translate(-1244.081 -646.609)" fill="#82c7e6"/>
      <path id="Path_7314" data-name="Path 7314" d="M1007.725,679.431l-67.275-.2a2.921,2.921,0,0,0-2.9,3.359l1.041,6.865,3.372-.007L944,723.994a3.5,3.5,0,0,0,3.489,3.292h53.7l2.234-37.967,3.177-.006Z" transform="translate(-937.521 -667.334)" fill="#c16807"/>
      <path id="Path_7316" data-name="Path 7316" d="M1177.913,734.809H1136.7l-2.207-47.139h48.969l-2.054,43.862A3.47,3.47,0,0,1,1177.913,734.809Z" transform="translate(-1113.099 -674.857)" fill="#ff8500"/>
      <path id="Path_7317" data-name="Path 7317" d="M1157.723,689.487l-53.16.141L1103.35,679.4l52.076.2a2.92,2.92,0,0,1,2.9,3.179Z" transform="translate(-1085.341 -667.485)" fill="#ff8500"/>
      <path id="Path_7318" data-name="Path 7318" d="M1114.52,772.421l50.7-.141-49.1,2.68Z" transform="translate(-1095.298 -750.279)" fill="#c16807"/>
      <rect id="Rectangle_205" data-name="Rectangle 205" width="1.411" height="10.102" transform="translate(39.17 11.994)" fill="#fff"/>
      <rect id="Rectangle_206" data-name="Rectangle 206" width="1.764" height="37.975" transform="translate(43.262 22.048)" fill="#fff"/>
    </g>
    <g id="Group_7572" data-name="Group 7572" transform="translate(1.296 16.371)">
      <path id="Path_7319" data-name="Path 7319" d="M950.618,471.681a114.386,114.386,0,0,0,12.42,4.074c1.272.338,3.377,1.3,4.548.443a1.386,1.386,0,0,0,.506-1.829c-.656-1.306-2.681-1.4-3.964-1.741-3.906-1.04-8.277-2.4-12.614-4.037a1.622,1.622,0,0,0-1.993,1.1,1.642,1.642,0,0,0,1.1,1.993Z" transform="translate(-949.455 -468.511)" fill="#ffe7cc"/>
    </g>
    <g id="Group_7573" data-name="Group 7573" transform="translate(27.899)">
      <path id="Path_7320" data-name="Path 7320" d="M1199.03,330.093c-1.386-10.609-1.295-10.636-1.883-11.638a1.425,1.425,0,0,0-2.578.3c-.322,1.174-.248.986,1.251,12.144a1.665,1.665,0,0,0,2.009,1.2,1.693,1.693,0,0,0,1.2-2.009Z" transform="translate(-1194.414 -317.768)" fill="#ffe7cc"/>
    </g>
    <g id="Group_7574" data-name="Group 7574" transform="translate(46.593 3.593)">
      <path id="Path_7321" data-name="Path 7321" d="M1369.529,360.951a24.478,24.478,0,0,0,2.661-4.536c.673-1.493,1.907-3.692.75-5.173a1.22,1.22,0,0,0-1.209-.34c-1.569.541-1.868,2.741-2.495,4.117a29.007,29.007,0,0,1-2.458,4.289,1.619,1.619,0,0,0,.553,2.2,1.64,1.64,0,0,0,2.2-.554Z" transform="translate(-1366.548 -350.856)" fill="#ffe7cc"/>
    </g>
    <g id="Group_7575" data-name="Group 7575" transform="translate(63.232 19.454)">
      <path id="Path_7322" data-name="Path 7322" d="M1529.718,499.2a1.423,1.423,0,0,0-.481-1.912c-1.149-.857-3.174-.066-4.427.279a28.22,28.22,0,0,0-4.242,1.577,1.63,1.63,0,0,0-.609,2.2,1.655,1.655,0,0,0,2.2.609C1527.438,499.756,1528.546,500.809,1529.718,499.2Z" transform="translate(-1519.76 -496.902)" fill="#ffe7cc"/>
    </g>
  </g>
</svg>
