<svg id="Group_121" data-name="Group 121" xmlns="http://www.w3.org/2000/svg" width="18.001" height="18" viewBox="0 0 18.001 18">
  <g id="Group_117" data-name="Group 117" transform="translate(0 0)">
    <g id="Group_116" data-name="Group 116">
      <path id="Path_246" data-name="Path 246" d="M18.529,14.9l-3.644-2.43a1.063,1.063,0,0,0-1.424.231L12.4,14.07a.454.454,0,0,1-.582.122l-.2-.111a12.2,12.2,0,0,1-3.18-2.5,12.25,12.25,0,0,1-2.5-3.18l-.111-.2a.454.454,0,0,1,.12-.584L7.312,6.558a1.064,1.064,0,0,0,.232-1.424L5.114,1.49a1.058,1.058,0,0,0-1.426-.321l-1.524.915a2.149,2.149,0,0,0-.98,1.272c-.549,2-.136,5.449,4.946,10.532,4.043,4.042,7.052,5.13,9.121,5.13a5.315,5.315,0,0,0,1.41-.184,2.147,2.147,0,0,0,1.272-.98l.916-1.523A1.058,1.058,0,0,0,18.529,14.9Zm-.2,1.119-.914,1.524a1.55,1.55,0,0,1-.915.709c-1.845.507-5.07.087-9.949-4.792s-5.3-8.1-4.792-9.949a1.553,1.553,0,0,1,.71-.916L4,1.685a.459.459,0,0,1,.619.139l1.32,1.982L7.043,5.467a.462.462,0,0,1-.1.618L5.579,7.146A1.05,1.05,0,0,0,5.3,8.494l.108.2a12.726,12.726,0,0,0,2.6,3.318,12.739,12.739,0,0,0,3.317,2.6l.2.109a1.05,1.05,0,0,0,1.348-.278l1.061-1.364a.462.462,0,0,1,.618-.1l3.643,2.43A.459.459,0,0,1,18.333,16.023Z" transform="translate(-1 -1.018)" fill="#323232"/>
      <path id="Path_247" data-name="Path 247" d="M282.928,69.924a5.105,5.105,0,0,1,5.1,5.1.3.3,0,0,0,.6,0,5.706,5.706,0,0,0-5.7-5.7.3.3,0,0,0,0,.6Z" transform="translate(-272.728 -66.923)" fill="#323232"/>
      <path id="Path_248" data-name="Path 248" d="M282.928,121.124a3.3,3.3,0,0,1,3.3,3.3.3.3,0,1,0,.6,0,3.9,3.9,0,0,0-3.9-3.9.3.3,0,0,0,0,.6Z" transform="translate(-272.728 -116.323)" fill="#323232"/>
      <path id="Path_249" data-name="Path 249" d="M282.928,172.324a1.5,1.5,0,0,1,1.5,1.5.3.3,0,1,0,.6,0,2.1,2.1,0,0,0-2.1-2.1.3.3,0,0,0,0,.6Z" transform="translate(-272.728 -165.723)" fill="#323232"/>
    </g>
  </g>
</svg>
