<svg xmlns="http://www.w3.org/2000/svg" width="24.29" height="24.736" viewBox="0 0 24.29 24.736">
  <g id="Group_120" data-name="Group 120" transform="translate(-0.52 2.153)">
    <g id="Group_119" data-name="Group 119" transform="translate(0.52 -2.153)">
      <g id="Group_110" data-name="Group 110">
        <g id="Group_109" data-name="Group 109">
          <path id="Path_240" data-name="Path 240" d="M15.567,0c-.007.007-.02.007-.04.007A12.135,12.135,0,0,0,6.01,19.7l-1.77,4.109a.66.66,0,0,0,.345.868.674.674,0,0,0,.378.046l6.488-1.14a11.693,11.693,0,0,0,4.043.7A12.145,12.145,0,0,0,15.567,0ZM15.5,22.971a10.639,10.639,0,0,1-3.745-.683.635.635,0,0,0-.351-.033l-5.461.954,1.445-3.36a.666.666,0,0,0-.106-.7A10.6,10.6,0,0,1,5.44,16.092a10.821,10.821,0,1,1,20.9-4v.04A10.85,10.85,0,0,1,15.5,22.971Z" transform="translate(-3.366)" fill="#fff"/>
        </g>
      </g>
      <g id="Group_112" data-name="Group 112" transform="translate(7.377 9.813)">
        <g id="Group_111" data-name="Group 111" transform="translate(0)">
          <path id="Path_241" data-name="Path 241" d="M118.908,146.7h-3.579a.663.663,0,1,0,0,1.326h3.579a.663.663,0,0,0,0-1.326Z" transform="translate(-114.666 -146.7)" fill="#fff"/>
        </g>
      </g>
      <g id="Group_114" data-name="Group 114" transform="translate(7.377 13.126)">
        <g id="Group_113" data-name="Group 113" transform="translate(0)">
          <path id="Path_242" data-name="Path 242" d="M123.547,196.7h-8.218a.663.663,0,0,0,0,1.326h8.218a.663.663,0,0,0,0-1.326Z" transform="translate(-114.666 -196.7)" fill="#fff"/>
        </g>
      </g>
    </g>
  </g>
</svg>
