<svg id="Group_7584" data-name="Group 7584" xmlns="http://www.w3.org/2000/svg" width="24.92" height="24.92" viewBox="0 0 24.92 24.92">
  <path id="Path_7343" data-name="Path 7343" d="M1892.282,312.322a12.46,12.46,0,1,1-17.617.368A12.459,12.459,0,0,1,1892.282,312.322Z" transform="translate(-1871.198 -308.854)" fill="#fff3d9"/>
  <path id="Path_7344" data-name="Path 7344" d="M1909.649,340.048l-5.3,1.63-1.663,5.292a.541.541,0,0,1-.958.148l-3.189-4.539-5.546.053a.54.54,0,0,1-.437-.865l3.33-4.435-1.764-5.259a.541.541,0,0,1,.687-.684l5.247,1.8,4.456-3.3a.541.541,0,0,1,.863.444l-.088,5.545,4.518,3.216A.542.542,0,0,1,1909.649,340.048Z" transform="translate(-1888.778 -326.164)" fill="#fed333"/>
</svg>
