<svg xmlns="http://www.w3.org/2000/svg" width="38" height="17" viewBox="0 0 38 17">
  <g id="Group_3714" data-name="Group 3714" transform="translate(-70 -222)">
    <rect id="Rectangle_43" data-name="Rectangle 43" width="38" height="17" rx="5" transform="translate(70 222)" fill="#fff"/>
    <g id="Group_3711" data-name="Group 3711" transform="translate(1.67)">
      <path id="Icon_awesome-star" data-name="Icon awesome-star" d="M5.97.337,4.732,2.848l-2.771.4a.607.607,0,0,0-.336,1.035l2,1.953L3.156,9a.607.607,0,0,0,.88.639l2.479-1.3,2.479,1.3A.607.607,0,0,0,9.873,9L9.4,6.241l2-1.953a.607.607,0,0,0-.336-1.035L8.3,2.848,7.059.337A.607.607,0,0,0,5.97.337Z" transform="translate(75.888 226.001)" fill="#ffd500"/>
      <text id="_4" data-name="4" transform="translate(94.385 235)" fill="#323232" font-size="12" font-family="OpenSans-Semibold, Open Sans" font-weight="600"><tspan x="-3.425" y="0">4</tspan></text>
    </g>
  </g>
</svg>
