<svg xmlns="http://www.w3.org/2000/svg" width="25.529" height="25.531" viewBox="0 0 25.529 25.531">
  <path id="home_14_" data-name="home (14)" d="M24.843,11.1l0,0L14.426.688a2.35,2.35,0,0,0-3.324,0L.693,11.1l-.011.011a2.349,2.349,0,0,0,1.564,4q.036,0,.072,0h.415V22.78A2.754,2.754,0,0,0,5.485,25.53H9.56a.748.748,0,0,0,.748-.748V18.774a1.256,1.256,0,0,1,1.255-1.255h2.4a1.256,1.256,0,0,1,1.255,1.255v6.009a.748.748,0,0,0,.748.748h4.075a2.754,2.754,0,0,0,2.751-2.751V15.116h.385A2.351,2.351,0,0,0,24.843,11.1Zm0,0" transform="translate(0 0.001)" fill="#fff"/>
</svg>
