<svg xmlns="http://www.w3.org/2000/svg" width="20.658" height="19.863" viewBox="0 0 20.658 19.863">
  <path id="Icon_ionic-ios-heart-empty" data-name="Icon ionic-ios-heart-empty" d="M18.471,3.938h-.05A5.65,5.65,0,0,0,13.7,6.52,5.65,5.65,0,0,0,8.986,3.938h-.05A5.614,5.614,0,0,0,3.375,9.549a12.088,12.088,0,0,0,2.374,6.59A41.6,41.6,0,0,0,13.7,23.8a41.6,41.6,0,0,0,7.955-7.662,12.088,12.088,0,0,0,2.374-6.59A5.614,5.614,0,0,0,18.471,3.938Zm2.066,11.382A38.087,38.087,0,0,1,13.7,22.053a38.144,38.144,0,0,1-6.833-6.739A10.713,10.713,0,0,1,4.765,9.549,4.213,4.213,0,0,1,8.947,5.333h.045a4.163,4.163,0,0,1,2.041.536,4.339,4.339,0,0,1,1.51,1.415,1.395,1.395,0,0,0,2.334,0,4.382,4.382,0,0,1,1.51-1.415,4.163,4.163,0,0,1,2.041-.536h.045a4.213,4.213,0,0,1,4.181,4.216A10.848,10.848,0,0,1,20.537,15.319Z" transform="translate(-3.375 -3.938)"/>
</svg>
