<svg xmlns="http://www.w3.org/2000/svg" xmlns:xlink="http://www.w3.org/1999/xlink" width="32.271" height="32.271" viewBox="0 0 32.271 32.271">
  <defs>
    <radialGradient id="radial-gradient" cx="0.205" cy="0.874" r="1.103" gradientTransform="translate(0)" gradientUnits="objectBoundingBox">
      <stop offset="0" stop-color="#fae100"/>
      <stop offset="0.054" stop-color="#fadc04"/>
      <stop offset="0.117" stop-color="#fbce0e"/>
      <stop offset="0.183" stop-color="#fcb720"/>
      <stop offset="0.251" stop-color="#fe9838"/>
      <stop offset="0.305" stop-color="#ff7950"/>
      <stop offset="0.492" stop-color="#ff1c74"/>
      <stop offset="1" stop-color="#6c1cd1"/>
    </radialGradient>
    <linearGradient id="linear-gradient" x1="0.369" y1="0.426" x2="-1.54" y2="-0.648" gradientUnits="objectBoundingBox">
      <stop offset="0" stop-color="#a1b5d8" stop-opacity="0"/>
      <stop offset="0.309" stop-color="#90a2bd" stop-opacity="0.31"/>
      <stop offset="0.755" stop-color="#7c8b9c" stop-opacity="0.757"/>
      <stop offset="1" stop-color="#748290"/>
    </linearGradient>
    <linearGradient id="linear-gradient-2" x1="0.5" y1="0.413" x2="0.5" y2="1.193" gradientUnits="objectBoundingBox">
      <stop offset="0" stop-color="#fae100" stop-opacity="0"/>
      <stop offset="0.307" stop-color="#fca800" stop-opacity="0.306"/>
      <stop offset="0.627" stop-color="#fe7300" stop-opacity="0.627"/>
      <stop offset="0.868" stop-color="#ff5200" stop-opacity="0.867"/>
      <stop offset="1" stop-color="#ff4500"/>
    </linearGradient>
    <linearGradient id="linear-gradient-3" x1="0.316" y1="0.311" x2="0.012" y2="0.005" gradientUnits="objectBoundingBox">
      <stop offset="0" stop-color="#833ab4" stop-opacity="0"/>
      <stop offset="1" stop-color="#833ab4"/>
    </linearGradient>
    <linearGradient id="linear-gradient-4" x1="0.582" y1="0.887" x2="0.418" y2="0.113" xlink:href="#linear-gradient-3"/>
    <linearGradient id="linear-gradient-5" x1="0.605" y1="0.605" x2="-0.16" y2="-0.16" xlink:href="#linear-gradient-3"/>
    <linearGradient id="linear-gradient-6" x1="0.376" y1="0.332" x2="-0.072" y2="-0.063" xlink:href="#linear-gradient-3"/>
    <linearGradient id="linear-gradient-7" x1="0.816" y1="0.182" x2="0.172" y2="0.835" gradientUnits="objectBoundingBox">
      <stop offset="0" stop-color="#833ab4"/>
      <stop offset="0.092" stop-color="#9c3495"/>
      <stop offset="0.293" stop-color="#dc2546"/>
      <stop offset="0.392" stop-color="#fd1d1d"/>
      <stop offset="0.559" stop-color="#fc6831"/>
      <stop offset="0.689" stop-color="#fc9b40"/>
      <stop offset="0.752" stop-color="#fcaf45"/>
      <stop offset="0.781" stop-color="#fdb750"/>
      <stop offset="0.866" stop-color="#fecb6a"/>
      <stop offset="0.942" stop-color="#ffd87a"/>
      <stop offset="1" stop-color="#ffdc80"/>
    </linearGradient>
  </defs>
  <g id="instagram_8_" data-name="instagram (8)" transform="translate(0.001 0)">
    <path id="Path_7347" data-name="Path 7347" d="M31.718,5.772A5.876,5.876,0,0,0,26.5.552a97.471,97.471,0,0,0-20.727,0,5.876,5.876,0,0,0-5.22,5.22,97.471,97.471,0,0,0,0,20.727,5.876,5.876,0,0,0,5.22,5.22,97.473,97.473,0,0,0,20.727,0,5.876,5.876,0,0,0,5.22-5.22,97.47,97.47,0,0,0,0-20.727Zm0,0" fill="url(#radial-gradient)"/>
    <path id="Path_7348" data-name="Path 7348" d="M56.98,33.956a5.214,5.214,0,0,0-4.632-4.632,86.527,86.527,0,0,0-18.392,0,5.215,5.215,0,0,0-4.632,4.632,86.524,86.524,0,0,0,0,18.392,5.214,5.214,0,0,0,4.632,4.632,86.491,86.491,0,0,0,18.392,0,5.214,5.214,0,0,0,4.632-4.632A86.492,86.492,0,0,0,56.98,33.956Zm0,0" transform="translate(-27.017 -27.017)" fill="url(#linear-gradient)"/>
    <path id="Path_7349" data-name="Path 7349" d="M7.672,409.805q.033.335.069.669a5.876,5.876,0,0,0,5.22,5.22,97.474,97.474,0,0,0,20.727,0,5.876,5.876,0,0,0,5.22-5.22q.036-.334.069-.669Zm0,0" transform="translate(-7.189 -383.975)" fill="url(#linear-gradient-2)"/>
    <path id="Path_7350" data-name="Path 7350" d="M120.815,117.683a97.56,97.56,0,0,0,.549-11.137l-7.376-7.376a5.283,5.283,0,0,0-3.849-1.766c-3.253-.117-6.516-.111-9.769,0a5.22,5.22,0,0,0-5.076,4.578c-.085.471-.137.949-.2,1.423v7.825c.037.254.092.506.109.761a5.689,5.689,0,0,0,1.844,3.955l7.506,7.506a97.556,97.556,0,0,0,11.046-.55,5.876,5.876,0,0,0,5.22-5.22Zm0,0" transform="translate(-89.097 -91.184)" fill="url(#linear-gradient-3)"/>
    <path id="Path_7351" data-name="Path 7351" d="M150.014,145.275a5.876,5.876,0,0,1-5.22,5.22,97.609,97.609,0,0,1-11.046.55l-7.5-7.5a5.255,5.255,0,0,0,3.316,1.273c3.252.122,6.516.119,9.769,0A5.227,5.227,0,0,0,144.5,139.6c.1-3.123.1-6.255,0-9.378a5.445,5.445,0,0,0-1.308-3.455l7.372,7.372a97.737,97.737,0,0,1-.549,11.137Zm0,0" transform="translate(-118.296 -118.776)" fill="url(#linear-gradient-4)"/>
    <path id="Path_7352" data-name="Path 7352" d="M182.969,175.667a5.168,5.168,0,1,0-7.3,7.3l11.959,11.959q.949-.083,1.9-.184a5.876,5.876,0,0,0,5.22-5.22q.1-.949.184-1.9Zm0,0" transform="translate(-163.026 -163.026)" fill="url(#linear-gradient-5)"/>
    <path id="Path_7353" data-name="Path 7353" d="M335.118,160.853l-9.625-9.625a1.229,1.229,0,1,0-1.721,1.721l11.174,11.174q.114-1.635.172-3.271Zm0,0" transform="translate(-302.909 -141.241)" fill="url(#linear-gradient-6)"/>
    <path id="Path_7354" data-name="Path 7354" d="M95.09,103.4c.067-.475.118-.952.2-1.423A5.22,5.22,0,0,1,100.37,97.4c3.253-.112,6.516-.118,9.769,0a5.228,5.228,0,0,1,5.162,5.225q.147,4.685,0,9.379a5.227,5.227,0,0,1-5.162,5.225c-3.253.117-6.516.12-9.769,0A5.318,5.318,0,0,1,95.2,111.99c-.017-.255-.072-.507-.109-.761V103.4Zm10.145,12.083c1.489,0,2.979.045,4.465-.01a3.632,3.632,0,0,0,3.819-3.806q.1-4.352,0-8.709a3.609,3.609,0,0,0-3.819-3.8q-4.436-.094-8.875,0a3.588,3.588,0,0,0-3.813,3.746q-.12,4.407,0,8.82a3.612,3.612,0,0,0,3.813,3.751c1.468.055,2.939.01,4.409.01Zm0,0" transform="translate(-89.097 -91.183)" fill="url(#linear-gradient-7)"/>
    <g id="Group_7596" data-name="Group 7596" transform="translate(5.993 6.134)">
      <path id="Path_7355" data-name="Path 7355" d="M95.09,103.4c.067-.475.118-.952.2-1.423A5.22,5.22,0,0,1,100.37,97.4c3.253-.112,6.516-.118,9.769,0a5.228,5.228,0,0,1,5.162,5.225q.147,4.685,0,9.379a5.227,5.227,0,0,1-5.162,5.225c-3.253.117-6.516.12-9.769,0A5.318,5.318,0,0,1,95.2,111.99c-.017-.255-.072-.507-.109-.761V103.4Zm10.145,12.083c1.489,0,2.979.045,4.465-.01a3.632,3.632,0,0,0,3.819-3.806q.1-4.352,0-8.709a3.609,3.609,0,0,0-3.819-3.8q-4.436-.094-8.875,0a3.588,3.588,0,0,0-3.813,3.746q-.12,4.407,0,8.82a3.612,3.612,0,0,0,3.813,3.751c1.468.055,2.939.01,4.409.01Zm0,0" transform="translate(-95.09 -97.317)" fill="#fff"/>
      <path id="Path_7356" data-name="Path 7356" d="M179.161,174a5.169,5.169,0,1,0,5.169,5.169A5.169,5.169,0,0,0,179.161,174Zm0,8.558a3.389,3.389,0,1,1,3.389-3.389A3.389,3.389,0,0,1,179.161,182.554Zm0,0" transform="translate(-169.019 -169.163)" fill="#fff"/>
      <path id="Path_7357" data-name="Path 7357" d="M325.745,151.972a1.23,1.23,0,1,1-1.23-1.23A1.23,1.23,0,0,1,325.745,151.972Zm0,0" transform="translate(-308.902 -147.375)" fill="#fff"/>
    </g>
  </g>
</svg>
