<svg xmlns="http://www.w3.org/2000/svg" width="15.045" height="15.045" viewBox="0 0 15.045 15.045">
  <g id="link" transform="translate(0.993 1)">
    <g id="Group_7673" data-name="Group 7673" transform="translate(-0.993 -1)">
      <g id="Group_7672" data-name="Group 7672" transform="translate(0)">
        <path id="Path_7385" data-name="Path 7385" d="M5.244,183.224,3.471,185a1.881,1.881,0,1,1-2.66-2.659l3.546-3.546a1.88,1.88,0,0,1,2.659,0A.627.627,0,1,0,7.9,177.9a3.134,3.134,0,0,0-4.432,0l-3.546,3.546a3.134,3.134,0,0,0,4.433,4.432L6.13,184.11a.627.627,0,1,0-.887-.887Z" transform="translate(0.993 -171.756)" fill="#565656"/>
        <path id="Path_7386" data-name="Path 7386" d="M198.452-.082a3.135,3.135,0,0,0-4.433,0l-2.127,2.127a.627.627,0,0,0,.887.887L194.906.8a1.881,1.881,0,0,1,2.66,2.659l-3.9,3.9a1.88,1.88,0,0,1-2.659,0,.627.627,0,0,0-.887.887,3.134,3.134,0,0,0,4.432,0l3.9-3.9A3.134,3.134,0,0,0,198.452-.082Z" transform="translate(-184.325 1)" fill="#565656"/>
      </g>
    </g>
  </g>
</svg>
