<svg xmlns="http://www.w3.org/2000/svg" width="22.045" height="15.432" viewBox="0 0 22.045 15.432">
  <g id="menu-left" transform="translate(-3 -7.5)">
    <path id="Path_204" data-name="Path 204" d="M3,8.6A1.1,1.1,0,0,1,4.1,7.5h8.829a1.1,1.1,0,0,1,0,2.193H4.1A1.1,1.1,0,0,1,3,8.6Z" transform="translate(0)" fill="#323232"/>
    <path id="Path_205" data-name="Path 205" d="M3,17.6a1.1,1.1,0,0,1,1.1-1.1H23.948a1.1,1.1,0,0,1,0,2.193H4.1A1.1,1.1,0,0,1,3,17.6Z" transform="translate(0 -2.389)" fill="#323232"/>
    <path id="Path_206" data-name="Path 206" d="M4.1,25.515a1.1,1.1,0,1,0,0,2.193H17.334a1.1,1.1,0,0,0,0-2.194Z" transform="translate(0 -4.777)" fill="#323232"/>
  </g>
</svg>
