<svg xmlns="http://www.w3.org/2000/svg" width="19.908" height="19.078" viewBox="0 0 19.908 19.078">
  <g id="paper-plane_1_" data-name="paper-plane (1)" transform="translate(0 0)">
    <path id="Path_6696" data-name="Path 6696" d="M8.75,17.612v3.847a.622.622,0,0,0,1.123.368l2.25-3.062Z" transform="translate(-1.492 -3.003)" fill="#fff"/>
    <path id="Path_6697" data-name="Path 6697" d="M19.646.115A.622.622,0,0,0,19,.07L.334,9.817a.622.622,0,0,0,.086,1.141l5.188,1.773,11.05-9.448-8.55,10.3,8.7,2.972a.637.637,0,0,0,.2.033.622.622,0,0,0,.615-.53L19.9.714a.623.623,0,0,0-.255-.6Z" transform="translate(0 0)" fill="#fff"/>
  </g>
</svg>
