<svg xmlns="http://www.w3.org/2000/svg" xmlns:xlink="http://www.w3.org/1999/xlink" width="32.57" height="32.57" viewBox="0 0 32.57 32.57">
  <defs>
    <linearGradient id="linear-gradient" x1="0.332" y1="0.141" x2="0.585" y2="0.682" gradientUnits="objectBoundingBox">
      <stop offset="0" stop-color="#fffc00"/>
      <stop offset="1" stop-color="#ffe600"/>
    </linearGradient>
    <linearGradient id="linear-gradient-2" x1="0.738" y1="0.628" x2="-0.899" y2="-0.25" gradientUnits="objectBoundingBox">
      <stop offset="0" stop-color="#ffe600" stop-opacity="0"/>
      <stop offset="1" stop-color="#ffce00"/>
    </linearGradient>
    <linearGradient id="linear-gradient-3" x1="0.5" y1="0.27" x2="0.5" y2="0.926" xlink:href="#linear-gradient-2"/>
  </defs>
  <g id="snapchat" transform="translate(0 0.001)">
    <path id="Path_7358" data-name="Path 7358" d="M26.745,32.012a98.377,98.377,0,0,1-20.919,0A5.931,5.931,0,0,1,.557,26.744a98.374,98.374,0,0,1,0-20.919A5.931,5.931,0,0,1,5.826.557a98.374,98.374,0,0,1,20.919,0,5.931,5.931,0,0,1,5.268,5.268,98.375,98.375,0,0,1,0,20.919,5.93,5.93,0,0,1-5.268,5.268Zm0,0" fill="url(#linear-gradient)"/>
    <path id="Path_7359" data-name="Path 7359" d="M57.241,34a5.262,5.262,0,0,0-4.675-4.675,87.329,87.329,0,0,0-18.563,0A5.263,5.263,0,0,0,29.329,34a87.326,87.326,0,0,0,0,18.563A5.263,5.263,0,0,0,34,57.241a87.293,87.293,0,0,0,18.563,0,5.262,5.262,0,0,0,4.675-4.675,87.293,87.293,0,0,0,0-18.563Zm0,0" transform="translate(-27 -27.001)" fill="url(#linear-gradient-2)"/>
    <path id="Path_7360" data-name="Path 7360" d="M7.672,409.8q.034.338.07.675a5.931,5.931,0,0,0,5.268,5.268,98.369,98.369,0,0,0,20.919,0A5.93,5.93,0,0,0,39.2,410.48q.036-.338.07-.675Zm0,0" transform="translate(-7.184 -383.736)" fill="url(#linear-gradient-3)"/>
    <path id="Path_7362" data-name="Path 7362" d="M101.324,120.557c-.054,0-.108,0-.161,0h0c-.034,0-.069,0-.1,0a4.6,4.6,0,0,1-2.819-1.112,4.115,4.115,0,0,0-1.632-.832,5.269,5.269,0,0,0-.857-.072,5.852,5.852,0,0,0-1.187.134,2.61,2.61,0,0,1-.443.064.278.278,0,0,1-.307-.22c-.049-.168-.085-.33-.119-.488-.088-.4-.151-.654-.321-.68-1.977-.305-2.542-.722-2.668-1.017a.374.374,0,0,1-.03-.126.222.222,0,0,1,.186-.232c3.038-.5,4.4-3.605,4.457-3.737l0-.011a1.156,1.156,0,0,0,.109-.972c-.208-.492-.888-.707-1.339-.85-.11-.035-.214-.068-.3-.1-.9-.355-.973-.72-.938-.906a.848.848,0,0,1,.825-.537.577.577,0,0,1,.246.049,2.616,2.616,0,0,0,1.082.285.893.893,0,0,0,.647-.206c-.011-.206-.025-.42-.039-.642a10.633,10.633,0,0,1,.252-4.24,5.5,5.5,0,0,1,5.1-3.291l.374,0h.05a5.506,5.506,0,0,1,5.112,3.293,10.636,10.636,0,0,1,.251,4.241l0,.062c-.013.2-.025.394-.035.58a.865.865,0,0,0,.59.205h0a2.708,2.708,0,0,0,1.02-.284.773.773,0,0,1,.317-.062.965.965,0,0,1,.365.07l.006,0a.67.67,0,0,1,.509.546c0,.21-.157.527-.945.838-.082.032-.186.065-.3.1-.451.143-1.13.359-1.339.85a1.157,1.157,0,0,0,.108.972l0,.011c.057.132,1.418,3.236,4.457,3.737a.223.223,0,0,1,.186.232.373.373,0,0,1-.031.127c-.125.293-.691.709-2.668,1.015-.161.025-.224.235-.32.677-.035.161-.071.318-.12.484a.264.264,0,0,1-.283.211h-.025a2.455,2.455,0,0,1-.442-.056,5.914,5.914,0,0,0-1.188-.126,5.273,5.273,0,0,0-.857.072,4.105,4.105,0,0,0-1.63.831,4.6,4.6,0,0,1-2.821,1.113Zm0,0" transform="translate(-84.906 -94.4)" fill="#fff"/>
    <path id="Path_7363" data-name="Path 7363" d="M98.117,97.761a5.281,5.281,0,0,1,4.909,3.161,10.541,10.541,0,0,1,.233,4.136c-.014.224-.028.44-.039.648l0,.089.06.066a1.057,1.057,0,0,0,.748.281h.017a2.919,2.919,0,0,0,1.107-.3.54.54,0,0,1,.222-.041.745.745,0,0,1,.281.053l.013,0c.212.074.362.214.365.341,0,.072-.053.33-.8.627-.074.029-.17.06-.282.1-.489.155-1.228.39-1.476.975a1.367,1.367,0,0,0,.114,1.158c.089.207,1.484,3.352,4.626,3.87a.148.148,0,0,1-.013.05c-.053.125-.392.558-2.5.883-.33.051-.411.42-.5.849-.034.154-.068.309-.116.469-.014.048-.017.051-.069.051h-.025a2.322,2.322,0,0,1-.4-.052,6.158,6.158,0,0,0-1.23-.13,5.482,5.482,0,0,0-.894.075,4.275,4.275,0,0,0-1.724.87,4.42,4.42,0,0,1-2.691,1.072c-.051,0-.1,0-.152,0h-.027c-.029,0-.058,0-.088,0a4.422,4.422,0,0,1-2.691-1.071,4.272,4.272,0,0,0-1.724-.87,5.483,5.483,0,0,0-.894-.075,6.067,6.067,0,0,0-1.23.138,2.49,2.49,0,0,1-.4.06c-.076,0-.078,0-.094-.059-.047-.161-.082-.32-.115-.473-.094-.43-.175-.8-.5-.852-2.106-.325-2.444-.759-2.5-.884a.145.145,0,0,1-.013-.051c3.141-.518,4.537-3.662,4.625-3.87a1.366,1.366,0,0,0,.114-1.157c-.248-.586-.988-.82-1.477-.976-.112-.035-.209-.066-.282-.1-.635-.251-.83-.5-.8-.656.034-.177.339-.356.607-.356a.365.365,0,0,1,.151.028,2.838,2.838,0,0,0,1.177.306,1.086,1.086,0,0,0,.815-.283l.059-.066,0-.089c-.011-.207-.025-.424-.039-.647a10.537,10.537,0,0,1,.233-4.135,5.275,5.275,0,0,1,4.9-3.159l.376,0h.048m0-.445h-.053l-.371,0a5.716,5.716,0,0,0-5.306,3.423,10.742,10.742,0,0,0-.271,4.342c.011.172.022.351.032.523a.854.854,0,0,1-.418.091,2.4,2.4,0,0,1-.988-.264.8.8,0,0,0-.34-.07,1.066,1.066,0,0,0-1.044.718c-.059.309.08.761,1.074,1.154.09.036.2.07.312.106.411.13,1.032.328,1.2.725a.954.954,0,0,1-.1.787l-.01.022c-.055.127-1.369,3.125-4.288,3.605a.446.446,0,0,0-.372.464.6.6,0,0,0,.047.2c.219.512,1.143.888,2.826,1.149a2.1,2.1,0,0,1,.151.508c.035.162.071.328.123.5a.5.5,0,0,0,.521.379,2.705,2.705,0,0,0,.485-.068,5.681,5.681,0,0,1,1.145-.13,5.025,5.025,0,0,1,.821.069,3.893,3.893,0,0,1,1.539.794,4.848,4.848,0,0,0,2.949,1.154c.036,0,.073,0,.108,0s.1,0,.157,0a4.846,4.846,0,0,0,2.948-1.153,3.9,3.9,0,0,1,1.539-.794,5.021,5.021,0,0,1,.821-.069,5.715,5.715,0,0,1,1.145.122,2.68,2.68,0,0,0,.485.06h.025a.484.484,0,0,0,.5-.372c.051-.172.087-.334.123-.5a2.075,2.075,0,0,1,.15-.506c1.683-.261,2.607-.636,2.826-1.146a.6.6,0,0,0,.048-.2.445.445,0,0,0-.372-.464c-2.921-.481-4.234-3.478-4.289-3.605l-.01-.022a.953.953,0,0,1-.1-.786c.168-.4.789-.594,1.2-.725.115-.037.223-.071.312-.106.728-.288,1.093-.641,1.086-1.05a.871.871,0,0,0-.654-.75h0a1.2,1.2,0,0,0-.448-.086.99.99,0,0,0-.411.083,2.513,2.513,0,0,1-.926.263.826.826,0,0,1-.361-.09c.008-.148.018-.3.028-.46l0-.062a10.743,10.743,0,0,0-.27-4.345,5.725,5.725,0,0,0-5.316-3.425Zm0,0" transform="translate(-81.624 -91.126)" fill="#030303"/>
  </g>
</svg>
