<svg id="whatsapp_2_" data-name="whatsapp (2)" xmlns="http://www.w3.org/2000/svg" width="32.271" height="32.271" viewBox="0 0 32.271 32.271">
  <path id="Path_7345" data-name="Path 7345" d="M16.139,0h-.008A16.125,16.125,0,0,0,3.072,25.593L1.061,31.587l6.2-1.983A16.133,16.133,0,1,0,16.139,0Z" fill="#4caf50"/>
  <path id="Path_7346" data-name="Path 7346" d="M126.031,132.493a4.553,4.553,0,0,1-3.167,2.277c-.843.18-1.944.323-5.651-1.214-4.742-1.964-7.8-6.783-8.033-7.1a9.216,9.216,0,0,1-1.916-4.867,5.151,5.151,0,0,1,1.65-3.927,2.344,2.344,0,0,1,1.65-.579c.2,0,.379.01.541.018.474.02.712.048,1.025.8.389.938,1.337,3.253,1.45,3.491a.96.96,0,0,1,.069.873,2.789,2.789,0,0,1-.522.74c-.238.274-.464.484-.7.779-.218.256-.464.53-.19,1a14.321,14.321,0,0,0,2.618,3.253,11.862,11.862,0,0,0,3.784,2.334,1.02,1.02,0,0,0,1.138-.18,19.523,19.523,0,0,0,1.261-1.67.9.9,0,0,1,1.158-.351c.436.151,2.741,1.291,3.215,1.527s.787.351.9.551A4.019,4.019,0,0,1,126.031,132.493Z" transform="translate(-100.503 -109.708)" fill="#fafafa"/>
</svg>
