<svg xmlns="http://www.w3.org/2000/svg" width="12.203" height="12.202" viewBox="0 0 12.203 12.202">
  <g id="_1._Icons_Line_add-item-alt_Copy" data-name="1. Icons / Line /  add-item-alt Copy" transform="translate(-4 -4.001)">
    <g id="user" transform="translate(4 4.001)" fill="#121924">
      <path d="M10.3,12.2H1.907A1.909,1.909,0,0,1,0,10.3V9.752A1.911,1.911,0,0,1,1.117,8.017l2.636-1.2a3.813,3.813,0,1,1,4.7,0l2.636,1.2A1.912,1.912,0,0,1,12.2,9.752V10.3A1.909,1.909,0,0,1,10.3,12.2ZM4.546,7.3,1.434,8.71A1.147,1.147,0,0,0,.763,9.752V10.3A1.146,1.146,0,0,0,1.907,11.44H10.3A1.146,1.146,0,0,0,11.44,10.3V9.752a1.148,1.148,0,0,0-.671-1.042L7.656,7.3a3.755,3.755,0,0,1-1.545.33H6.092A3.761,3.761,0,0,1,4.546,7.3ZM6.1.762a3.051,3.051,0,1,0,3.05,3.051A3.055,3.055,0,0,0,6.1.762Z" stroke="none"/>
      <path d="M 10.29609203338623 12.20223903656006 L 1.906832337379456 12.20223903656006 C 0.8554023504257202 12.20223903656006 2.364196689086384e-06 11.34682941436768 2.364196689086384e-06 10.2953987121582 L 2.364196689086384e-06 9.752458572387695 C 2.364196689086384e-06 9.006548881530762 0.4386323690414429 8.325159072875977 1.117472410202026 8.016538619995117 L 3.753952264785767 6.818758964538574 C 2.471752405166626 5.817139148712158 1.966182351112366 4.109959125518799 2.495772361755371 2.571959018707275 C 3.025482416152954 1.033599019050598 4.474502563476562 -9.585571660863934e-07 6.101462364196777 -9.585571660863934e-07 C 7.728422164916992 -9.585571660863934e-07 9.17744255065918 1.033599019050598 9.707152366638184 2.571959018707275 C 10.23681259155273 4.110148906707764 9.731402397155762 5.816638946533203 8.449522018432617 6.818318843841553 L 11.08545207977295 8.016538619995117 C 11.76429271697998 8.325469017028809 12.20292282104492 9.006869316101074 12.20292282104492 9.752458572387695 L 12.20292282104492 10.2953987121582 C 12.20292282104492 11.34682941436768 11.3475227355957 12.20223903656006 10.29609203338623 12.20223903656006 Z M 4.546072483062744 7.295809268951416 L 1.433902382850647 8.710489273071289 C 1.026102423667908 8.895918846130371 0.7626023888587952 9.304908752441406 0.7626023888587952 9.752458572387695 L 0.7626023888587952 10.2953987121582 C 0.7626023888587952 10.9263391494751 1.275902390480042 11.4396390914917 1.906832337379456 11.4396390914917 L 10.29609203338623 11.4396390914917 C 10.92702198028564 11.4396390914917 11.44033241271973 10.9263391494751 11.44033241271973 10.2953987121582 L 11.44033241271973 9.752458572387695 C 11.44033241271973 9.305218696594238 11.17682266235352 8.896228790283203 10.76902198791504 8.710489273071289 L 7.656172275543213 7.295809268951416 C 7.167192459106445 7.514899253845215 6.647162437438965 7.625978946685791 6.111152172088623 7.625988960266113 L 6.101462364196777 7.625968933105469 L 6.091772556304932 7.625988960266113 C 5.555832386016846 7.625988960266113 5.035782337188721 7.514909267425537 4.546062469482422 7.295809268951416 L 4.546072483062744 7.295809268951416 L 4.546062469482422 7.295809268951416 Z M 6.101462364196777 0.7619090676307678 C 4.419092178344727 0.7619090676307678 3.050392389297485 2.130619049072266 3.050392389297485 3.812988996505737 C 3.050392389297485 5.494978904724121 4.419092178344727 6.863368988037109 6.101462364196777 6.863368988037109 C 7.78345251083374 6.863368988037109 9.151852607727051 5.494978904724121 9.151852607727051 3.812988996505737 C 9.151852607727051 2.130619049072266 7.78345251083374 0.7619090676307678 6.101462364196777 0.7619090676307678 Z" stroke="none" fill="#000"/>
    </g>
  </g>
</svg>
