<svg xmlns="http://www.w3.org/2000/svg" width="12.141" height="12.146" viewBox="0 0 12.141 12.146">
  <g id="_1._Icons_Line_add-item-alt_Copy_2" data-name="1. Icons / Line /  add-item-alt Copy 2" transform="translate(-1.333 -1.333)">
    <path id="phone" d="M10.623,12.146H9.409A9.348,9.348,0,0,1,2.756,9.39,9.348,9.348,0,0,1,0,2.737V1.518A1.519,1.519,0,0,1,1.518,0H3.525a1.513,1.513,0,0,1,1.5,1.268L5.3,2.95a1.419,1.419,0,0,1-.956,1.587l-.366.122a.3.3,0,0,0-.2.368l.381,1.4A2.383,2.383,0,0,0,5.711,8.059l.927.309a.3.3,0,0,0,.349-.12l.443-.664a1.517,1.517,0,0,1,1.742-.6L11.1,7.63a1.515,1.515,0,0,1,1.038,1.441v1.557A1.508,1.508,0,0,1,11.7,11.7,1.53,1.53,0,0,1,10.623,12.146ZM1.518.607a.912.912,0,0,0-.911.911V2.736a8.812,8.812,0,0,0,8.8,8.8h1.214a.912.912,0,0,0,.911-.911V9.071a.909.909,0,0,0-.623-.864L8.979,7.563a.911.911,0,0,0-1.045.358l-.443.664a.909.909,0,0,1-1.045.358l-.926-.309A2.987,2.987,0,0,1,3.578,6.583L3.2,5.187a.912.912,0,0,1,.59-1.1l.366-.122a.816.816,0,0,0,.55-.912L4.422,1.368a.908.908,0,0,0-.9-.761Z" transform="translate(1.333 1.333)"/>
  </g>
</svg>
