<svg xmlns="http://www.w3.org/2000/svg" width="27.678" height="24.203" viewBox="0 0 27.678 24.203">
  <g id="cookies-_1_" transform="translate(-0.232 479.6)">
    <path id="Path_17831" data-name="Path 17831" d="M9.3-479.541a6.074,6.074,0,0,0-2.894,1.3l-.308.27-.492-.016a2.916,2.916,0,0,0-2.861,1.72,3.815,3.815,0,0,0-.249.562c0,.032-.114.119-.254.195a3.937,3.937,0,0,0-1.7,2.434,12.822,12.822,0,0,0,.444,7.064,3.611,3.611,0,0,0,.876,1.266.948.948,0,0,1,.281.324,7.711,7.711,0,0,0,1.109,1.536,4.667,4.667,0,0,0,1.471,1.082,4.644,4.644,0,0,0,1.341.357,1.251,1.251,0,0,1,.368.13,9.813,9.813,0,0,0,3.04.714l.357.027.157.281a3.262,3.262,0,0,0,.492.617,3.072,3.072,0,0,1,.433.514A8.355,8.355,0,0,0,12.07-457.6a4.319,4.319,0,0,0,2.456,1.314,3.683,3.683,0,0,1,.73.211,9.153,9.153,0,0,0,3.218.671,4.393,4.393,0,0,0,1.309-.087c2.472-.514,5.457-2.818,5.971-4.6a1.693,1.693,0,0,1,.481-.676,5.828,5.828,0,0,0,1.574-2.575,3.964,3.964,0,0,0,.087-1.428,10.616,10.616,0,0,0-.119-1.422,8.546,8.546,0,0,0-.79-2.169,2.47,2.47,0,0,1-.319-.817,4.743,4.743,0,0,0-.379-1.4,3.469,3.469,0,0,0-2.85-2.066,1.446,1.446,0,0,1-.936-.422,6.93,6.93,0,0,0-2.423-1.206,4.025,4.025,0,0,0-1.12-.119,6.389,6.389,0,0,0-.849.038c-.13.032-.151.022-.173-.081a5.3,5.3,0,0,0-.449-1.444,2.79,2.79,0,0,0-.687-.952,3.462,3.462,0,0,0-2.234-1.033,1.006,1.006,0,0,1-.687-.314,7.192,7.192,0,0,0-2.493-1.276A5.747,5.747,0,0,0,9.3-479.541Zm1.59.86a6.266,6.266,0,0,1,2.775,1.439.622.622,0,0,0,.53.216,2.8,2.8,0,0,1,2.553,1.579,4.448,4.448,0,0,1,.352,1.39,3.481,3.481,0,0,0,.427.919,5.9,5.9,0,0,1,1.017,3.3,4.732,4.732,0,0,1-1.742,3.348c-.492.471-.535.525-.573.773a2.739,2.739,0,0,1-.633,1.244,9.356,9.356,0,0,1-4.884,2.969,8.164,8.164,0,0,1-3.954-.627,1.578,1.578,0,0,0-.573-.189,3.411,3.411,0,0,1-1.688-.617,6.273,6.273,0,0,1-1.617-1.963.926.926,0,0,0-.325-.417c-.519-.27-.963-1.244-1.222-2.683a9.673,9.673,0,0,1,.352-5.658,2.523,2.523,0,0,1,1.006-1.12c.46-.206.476-.216.617-.606a2.485,2.485,0,0,1,1.26-1.574,1.556,1.556,0,0,1,.822-.151,4.793,4.793,0,0,1,.757.043l.276.043.454-.454a2.951,2.951,0,0,1,.974-.7A4.966,4.966,0,0,1,10.885-478.681Zm11.185,10.769c0,.233-.233.335-.379.162a.21.21,0,0,1,.1-.314C21.914-468.09,22.071-468.009,22.071-467.912Zm-3.278,3.034c.114.043.114.325,0,.368a.2.2,0,0,1-.227-.335C18.641-464.921,18.674-464.921,18.793-464.878Zm.865,4.76c.114.043.114.325,0,.368a.2.2,0,0,1-.227-.335C19.507-460.161,19.539-460.161,19.658-460.118Z" transform="translate(0)" fill="#449100"/>
    <path id="Path_17832" data-name="Path 17832" d="M112.849-399.877a1.513,1.513,0,0,0-.46.335,1.185,1.185,0,0,0-.341,1.293,1.606,1.606,0,0,0,.833.833,1.185,1.185,0,0,0,1.293-.341,1.191,1.191,0,0,0,.043-1.758A1.27,1.27,0,0,0,112.849-399.877Zm.73.93a.427.427,0,0,1-.3.73.457.457,0,0,1-.433-.433.457.457,0,0,1,.433-.433A.422.422,0,0,1,113.579-398.946Z" transform="translate(-105.706 -75.348)" fill="#449100"/>
    <path id="Path_17833" data-name="Path 17833" d="M219.767-378.407a1.088,1.088,0,0,0-.719,1.558.973.973,0,0,0,.892.541.765.765,0,0,0,.584-.119,1.071,1.071,0,0,0-.049-1.882A1.1,1.1,0,0,0,219.767-378.407Zm.411.974a.189.189,0,0,1-.222.26.194.194,0,0,1-.076-.346A.19.19,0,0,1,220.178-377.434Z" transform="translate(-206.87 -95.698)" fill="#449100"/>
    <path id="Path_17834" data-name="Path 17834" d="M56.905-319.619a1.212,1.212,0,0,0-.665.709,1.118,1.118,0,0,0,.476,1.239,1.163,1.163,0,0,0,1.136-.016.972.972,0,0,0,.476-.909.968.968,0,0,0-.46-.9A1.311,1.311,0,0,0,56.905-319.619Zm.53.887c.141.173-.07.438-.254.319a.212.212,0,0,1,.092-.4A.247.247,0,0,1,57.435-318.732Z" transform="translate(-52.943 -151.289)" fill="#449100"/>
    <path id="Path_17835" data-name="Path 17835" d="M160.905-319.619a1.212,1.212,0,0,0-.665.709,1.118,1.118,0,0,0,.476,1.239,1.163,1.163,0,0,0,1.136-.016.972.972,0,0,0,.476-.909.968.968,0,0,0-.46-.9A1.311,1.311,0,0,0,160.905-319.619Zm.53.887c.141.173-.07.438-.254.319a.212.212,0,0,1,.092-.4A.247.247,0,0,1,161.435-318.732Z" transform="translate(-151.318 -151.289)" fill="#449100"/>
    <path id="Path_17836" data-name="Path 17836" d="M232.274-263.865a.427.427,0,0,0,.3.73.422.422,0,0,0,.3-.135.427.427,0,0,0-.3-.73A.422.422,0,0,0,232.274-263.865Z" transform="translate(-219.371 -203.939)" fill="#449100"/>
    <path id="Path_17837" data-name="Path 17837" d="M120.135-231.865a.422.422,0,0,0-.135.3.422.422,0,0,0,.135.3.422.422,0,0,0,.3.135.422.422,0,0,0,.3-.135.422.422,0,0,0,.135-.3.422.422,0,0,0-.135-.3.422.422,0,0,0-.3-.135A.422.422,0,0,0,120.135-231.865Z" transform="translate(-113.29 -234.208)" fill="#449100"/>
    <path id="Path_17838" data-name="Path 17838" d="M176.905-231.619a1.212,1.212,0,0,0-.665.709,1.118,1.118,0,0,0,.476,1.239,1.163,1.163,0,0,0,1.136-.016.972.972,0,0,0,.476-.909.968.968,0,0,0-.46-.9A1.311,1.311,0,0,0,176.905-231.619Zm.53.887c.141.173-.07.438-.254.319a.212.212,0,0,1,.092-.4A.247.247,0,0,1,177.435-230.732Z" transform="translate(-166.452 -234.529)" fill="#449100"/>
  </g>
</svg>
