<svg xmlns="http://www.w3.org/2000/svg" width="29.18" height="31.432" viewBox="0 0 29.18 31.432">
  <g id="grocery" transform="translate(-0.059 -0.001)">
    <path id="Path_18878" data-name="Path 18878" d="M181.1,94.87l.011.007V88.07h-5.05v3.647A3.642,3.642,0,0,1,181.1,94.87Zm0,0" transform="translate(-163.655 -81.892)" fill="#449100"/>
    <path id="Path_18879" data-name="Path 18879" d="M160.059,154.6c0,.056.01.105.013.159l1.359-.906a.561.561,0,0,1,.623,0l1.372.916,1.372-.915a.563.563,0,0,1,.163-.072,2.518,2.518,0,0,0-4.9.819Zm0,0" transform="translate(-148.778 -141.408)" fill="#449100"/>
    <path id="Path_18880" data-name="Path 18880" d="M191.956,49.754l1.683-1.683h-4.585l-1.683,1.683Zm0,0" transform="translate(-174.174 -44.698)" fill="#449100"/>
    <path id="Path_18881" data-name="Path 18881" d="M264.059,60.764l.432-.289,2.978-7.927L266.3,51.383l-2.245,2.245Zm0,0" transform="translate(-245.483 -47.778)" fill="#449100"/>
    <path id="Path_18882" data-name="Path 18882" d="M97.732,4.8a.561.561,0,0,1-.717.855.6.6,0,0,0-.755.071l-.014.015-.01.01a.62.62,0,0,0-.156.313.649.649,0,0,0,.169.571c.013.014.1.112.21.243l.144.168a2.977,2.977,0,0,1,.6.091,3.03,3.03,0,0,1,1.941,1.571l1.06,2.256a3.6,3.6,0,0,1,.355-.393V5.617c0-.012.006-.022.007-.035a.548.548,0,0,1,.03-.148.528.528,0,0,1,.018-.053.563.563,0,0,1,.108-.16l.261-.26-.017-.017,1.653-1.683a.643.643,0,0,0,0-.9.607.607,0,0,0-.853,0l-.827.841a.561.561,0,0,1-.961-.393V.567a.542.542,0,1,0-1.082,0V2.811a.561.561,0,0,1-.962.393l-.824-.842a.6.6,0,0,0-.858,0,.648.648,0,0,0,0,.9Zm0,0" transform="translate(-89.276 0)" fill="#449100"/>
    <path id="Path_18883" data-name="Path 18883" d="M216.059,16.07h5.05v1.122h-5.05Zm0,0" transform="translate(-200.85 -14.942)" fill="#449100"/>
    <path id="Path_18884" data-name="Path 18884" d="M6.095,352.07a1.807,1.807,0,0,0-1.287.533l-.425.425a.561.561,0,0,1-.793,0l-.425-.425A1.82,1.82,0,0,0,.059,353.89a8.413,8.413,0,0,0,.884,3.743l.2.393A1.4,1.4,0,0,0,2.4,358.8a1.424,1.424,0,0,0,.634-.148l.706-.354a.561.561,0,0,1,.5,0l.706.354a1.421,1.421,0,0,0,.627.148,1.4,1.4,0,0,0,1.261-.779l.2-.393a8.409,8.409,0,0,0,.884-3.742,1.822,1.822,0,0,0-1.82-1.82Zm0,0" transform="translate(0 -327.375)" fill="#449100"/>
    <path id="Path_18885" data-name="Path 18885" d="M314.553,194.588l-1.372-.916-1.122.748v17.1H314.3a1.683,1.683,0,0,0,1.683-1.683V194.048l-.811.54a.561.561,0,0,1-.623,0Zm0,0" transform="translate(-290.116 -180.087)" fill="#449100"/>
    <path id="Path_18886" data-name="Path 18886" d="M74.836,119.657l1.459-1.129.687.888-1.447,1.118.12.151,1.245.83,1.372-.915a.561.561,0,0,1,.623,0l.3.2a3.609,3.609,0,0,1,.084-.4l-1.43-3.047a1.892,1.892,0,0,0-2.749-.713,1.943,1.943,0,0,0-.385,2.862Zm0,0" transform="translate(-68.986 -108.155)" fill="#449100"/>
    <path id="Path_18887" data-name="Path 18887" d="M107.593,194.587a.561.561,0,0,1-.623,0l-1.372-.916-1.372.915a.561.561,0,0,1-.623,0l-1.372-.915-1.372.915a.561.561,0,0,1-.623,0l-1.372-.915-1.372.915a.561.561,0,0,1-.623,0l-.811-.539v9.707A2.941,2.941,0,0,1,98.3,206.6a9.546,9.546,0,0,1-1,4.245l-.2.393a2.659,2.659,0,0,1-.163.277h13.145v-17.1l-1.122-.749Zm0,0" transform="translate(-89.266 -180.086)" fill="#449100"/>
    <path id="Path_18888" data-name="Path 18888" d="M296.35,1.161A2.478,2.478,0,0,0,294.292.07a2.548,2.548,0,0,0-2.357,1.663l-4.107,10.931,1.138.76,1.372-.915a.561.561,0,0,1,.623,0l1.372.915.842-.561,3.479-9.255a2.658,2.658,0,0,0-.3-2.448Zm-4.578,10.306-1.1-3.367,1.066-.348,1.1,3.367Zm1.644-3.928-1.1-3.367,1.066-.348,1.1,3.367Zm0,0" transform="translate(-267.585 -0.064)" fill="#449100"/>
  </g>
</svg>
