<svg xmlns="http://www.w3.org/2000/svg" width="176" height="146.908" viewBox="0 0 176 146.908">
  <g id="Group_3055" data-name="Group 3055" transform="translate(-92 -254.092)">
    <text id="There_is_no_notification_to_display" data-name="There is no notification
to display" transform="translate(180 373)" font-size="17" font-family="OpenSans-Light, Open Sans" font-weight="300"><tspan x="-87.142" y="0">There is no notification</tspan><tspan x="-36.362" y="23">to display</tspan></text>
    <path id="Icon_awesome-bell" data-name="Icon awesome-bell" d="M36.669,83.816A10.475,10.475,0,0,0,47.141,73.339H26.2A10.475,10.475,0,0,0,36.669,83.816Zm35.26-24.508c-3.163-3.4-9.081-8.511-9.081-25.258A25.851,25.851,0,0,0,41.9,8.65V5.238a5.235,5.235,0,1,0-10.47,0V8.65A25.851,25.851,0,0,0,10.49,34.05c0,16.747-5.918,21.859-9.081,25.258A5.115,5.115,0,0,0,0,62.862,5.243,5.243,0,0,0,5.255,68.1H68.084a5.242,5.242,0,0,0,5.255-5.238A5.112,5.112,0,0,0,71.929,59.308Z" transform="translate(143 254.092)" fill="#efefef"/>
  </g>
</svg>
