<svg xmlns="http://www.w3.org/2000/svg" width="30.593" height="30.468" viewBox="0 0 30.593 30.468">
  <g id="Group_3002" data-name="Group 3002" transform="translate(-102 -194)">
    <g id="fruits" transform="translate(102 194)">
      <path id="Path_17808" data-name="Path 17808" d="M289.175-477.638a4.926,4.926,0,0,0-1.107,2.6l-.068.458.67.67a7.739,7.739,0,0,1,.8.881.773.773,0,0,0,.171.225.772.772,0,0,0,.171-.225,7.743,7.743,0,0,1,.8-.881l.67-.67-.068-.458a6.633,6.633,0,0,0-.56-1.824c-.232-.458-.834-1.134-1.011-1.134A1.406,1.406,0,0,0,289.175-477.638Z" transform="translate(-270.507 478)" fill="#f90"/>
      <path id="Path_17809" data-name="Path 17809" d="M239.217-429.611a9.508,9.508,0,0,1,1.79,3.212c.068.26.123.478.13.485a3.661,3.661,0,0,0,.588-.116c.314-.075.861-.178,1.216-.219a5.829,5.829,0,0,0,.67-.1,3.661,3.661,0,0,0-.294-.649,5.761,5.761,0,0,0-2.658-2.5,7.547,7.547,0,0,0-1.667-.506C238.937-430,239.032-429.836,239.217-429.611Z" transform="translate(-224.833 433.28)" fill="#f90"/>
      <path id="Path_17810" data-name="Path 17810" d="M324.69-429.738a7.419,7.419,0,0,0-1.23.485,4.048,4.048,0,0,0-1.4,1.039,6.6,6.6,0,0,0-.875,1.045l-.184.348.116.328.123.321.683.116c.376.068.813.157.977.205a.891.891,0,0,0,.307.061c.007-.014.068-.239.137-.492a9.343,9.343,0,0,1,1.79-3.212C325.5-429.943,325.489-429.95,324.69-429.738Z" transform="translate(-301.252 433.161)" fill="#f90"/>
      <path id="Path_17811" data-name="Path 17811" d="M205.955-389.77a12.676,12.676,0,0,1,1.285,1.92l.184.376.56-.355c.314-.191.663-.389.779-.444.3-.123.266-.28-.137-.635a6.456,6.456,0,0,0-2.72-1.244l-.307-.048Z" transform="translate(-193.738 396.199)" fill="#f90"/>
      <path id="Path_17812" data-name="Path 17812" d="M371.6-389.709c-1.032.266-2.6,1.209-2.6,1.565,0,.068.089.157.212.2s.465.253.779.444l.56.355.184-.376a13.084,13.084,0,0,1,1.278-1.913C372.41-389.914,372.4-389.921,371.6-389.709Z" transform="translate(-345.973 395.865)" fill="#f90"/>
      <path id="Path_17813" data-name="Path 17813" d="M255.034-358.247a9.246,9.246,0,0,0-1.934.711l-.3.15.458.424a3.77,3.77,0,0,0,.506.417,24.342,24.342,0,0,0,1.852-1.79A3.124,3.124,0,0,0,255.034-358.247Z" transform="translate(-237.713 366.515)" fill="#f90"/>
      <path id="Path_17814" data-name="Path 17814" d="M330-358.64c0,.055,1.8,1.783,1.865,1.8a1.846,1.846,0,0,0,.512-.417l.43-.43-.533-.253c-.294-.137-.67-.3-.84-.355A10.108,10.108,0,0,0,330-358.64Z" transform="translate(-309.637 366.799)" fill="#f90"/>
      <path id="Path_17815" data-name="Path 17815" d="M279.648-352.066l-1.148,1.141,1.127,1.086c.622.6,1.148,1.093,1.175,1.093s.553-.5,1.175-1.114l1.127-1.107-1.155-1.114L280.8-353.2Z" transform="translate(-261.656 361.728)" fill="#f90"/>
      <path id="Path_17816" data-name="Path 17816" d="M209.467-334.337a9.954,9.954,0,0,0-1.018,1.189l-.348.519.458.451.458.451,1.155-1.134,1.148-1.127-.5-.506a2.683,2.683,0,0,0-.595-.506A4.824,4.824,0,0,0,209.467-334.337Z" transform="translate(-196.067 344.771)" fill="#f90"/>
      <path id="Path_17817" data-name="Path 17817" d="M369.34-334.5l-.54.492,1.127,1.107a15.134,15.134,0,0,0,1.182,1.114,3.389,3.389,0,0,0,.5-.4l.437-.4-.362-.54A11.253,11.253,0,0,0,369.927-335,4.766,4.766,0,0,0,369.34-334.5Z" transform="translate(-345.786 344.771)" fill="#f90"/>
      <path id="Path_17818" data-name="Path 17818" d="M234.148-307.679,233-306.566l1.1,1.08a15.132,15.132,0,0,0,1.175,1.093,9.359,9.359,0,0,0,1.209-1.073l1.127-1.086-.649-.656c-.355-.362-.881-.868-1.162-1.128l-.512-.465Z" transform="translate(-219.266 320.362)" fill="#f90"/>
      <path id="Path_17819" data-name="Path 17819" d="M324.662-307.686l-1.162,1.114,1.162,1.121,1.162,1.127,1.141-1.093c.635-.608,1.148-1.121,1.148-1.148s-.519-.533-1.148-1.141l-1.148-1.093Z" transform="translate(-303.582 320.362)" fill="#f90"/>
      <path id="Path_17820" data-name="Path 17820" d="M39.9-287.89a2.343,2.343,0,0,0-.383.635,11.8,11.8,0,0,0-.827,3.8c-.041.471-.082.861-.1.875A3.307,3.307,0,0,1,37.61-283a3.428,3.428,0,0,0-4.387.506A4.485,4.485,0,0,0,32-279.383a36.329,36.329,0,0,0,.656,4.353,10.257,10.257,0,0,0,.9,2.337,3.707,3.707,0,0,0,3.485,2.2,6.534,6.534,0,0,0,1.162-.28,6.358,6.358,0,0,1,.9-.246,6.606,6.606,0,0,1,.909.246,3.53,3.53,0,0,0,2.111.2,3.912,3.912,0,0,0,2.528-2.132,12.68,12.68,0,0,0,1.326-4.64c.342-2.275.294-3.02-.287-4.2a3.8,3.8,0,0,0-2.426-1.947,2.9,2.9,0,0,0-1.49,0,5.4,5.4,0,0,0-1.469.642c-.594.314-.608.307-.553-.287a11.9,11.9,0,0,1,.827-3.854c.212-.362.212-.594-.007-.806A.56.56,0,0,0,39.9-287.89Zm-2.023,6.109a2.261,2.261,0,0,0,2.46,0,.551.551,0,0,1,.786,0c.471.465-.089,1.1-1.209,1.367a3.4,3.4,0,0,1-2.207-.2c-.731-.321-.984-.8-.615-1.162A.551.551,0,0,1,37.876-281.781Z" transform="translate(-32 300.948)" fill="#f90"/>
      <path id="Path_17821" data-name="Path 17821" d="M194.16-283.474a6.265,6.265,0,0,0-.212.806l-.048.273.533-.526.526-.533-.266-.273a1.228,1.228,0,0,0-.321-.273A1.84,1.84,0,0,0,194.16-283.474Z" transform="translate(-182.837 297.256)" fill="#f90"/>
      <path id="Path_17822" data-name="Path 17822" d="M414.866-283.727l-.266.273.526.533.533.526-.048-.273a5.734,5.734,0,0,0-.424-1.332A1.228,1.228,0,0,0,414.866-283.727Z" transform="translate(-388.457 297.256)" fill="#f90"/>
      <path id="Path_17823" data-name="Path 17823" d="M196.886-263.825c-.54.519-.875.881-.806.881a5.618,5.618,0,0,1,1.613.594,7.533,7.533,0,0,1,.834.622l.41.362.581-.526a6.04,6.04,0,0,0,.581-.574c0-.02-.512-.526-1.148-1.134l-1.141-1.1Z" transform="translate(-184.86 279.275)" fill="#f90"/>
      <path id="Path_17824" data-name="Path 17824" d="M279.648-264.066l-1.148,1.141,1.127,1.086a11.143,11.143,0,0,0,1.209,1.08A22.913,22.913,0,0,0,283.064-263c-.034-.02-.553-.526-1.162-1.121l-1.1-1.08Z" transform="translate(-261.656 279.741)" fill="#f90"/>
      <path id="Path_17825" data-name="Path 17825" d="M370.593-262.907l-1.093,1.1,1.1,1.086a15.455,15.455,0,0,0,1.168,1.093,11.666,11.666,0,0,0,1.032-.929l.97-.929v-.656l-.964-.929a9.226,9.226,0,0,0-1.045-.929A12.945,12.945,0,0,0,370.593-262.907Z" transform="translate(-346.438 278.623)" fill="#f90"/>
      <path id="Path_17826" data-name="Path 17826" d="M247.563-220.23l-.663.663.144.321.143.321h3.1l-.369-.383c-.2-.2-.67-.649-1.032-.984l-.649-.608Z" transform="translate(-232.216 238.468)" fill="#f90"/>
      <path id="Path_17827" data-name="Path 17827" d="M328.625-219.716l-1.025.977h2.029c1.114,0,2.029-.007,2.029-.02s-.451-.451-1.011-.977l-1-.963Z" transform="translate(-307.401 238.281)" fill="#f90"/>
      <path id="Path_17828" data-name="Path 17828" d="M419.037-204.556l-.437.444h.916v-.444A2.194,2.194,0,0,0,419.5-205C419.488-205,419.276-204.8,419.037-204.556Z" transform="translate(-392.183 223.654)" fill="#f90"/>
      <path id="Path_17829" data-name="Path 17829" d="M242.248-175.337a24.661,24.661,0,0,1-.9,5.685,1.15,1.15,0,0,0-.082.321,9.873,9.873,0,0,0,1.79.642,9.941,9.941,0,0,0,9.512-2.556,9.1,9.1,0,0,0,2-2.672,6.741,6.741,0,0,0,.683-1.961c0-.116-.328-.123-6.519-.123h-6.519Zm10.783.6a.539.539,0,0,1-.376.922.577.577,0,0,1-.547-.547.577.577,0,0,1,.547-.547A.533.533,0,0,1,253.03-174.736Zm-8.746,1.093a.539.539,0,0,1-.376.922.577.577,0,0,1-.547-.547.577.577,0,0,1,.547-.547A.533.533,0,0,1,244.284-173.643Zm3.28,0a.539.539,0,0,1-.376.922.577.577,0,0,1-.547-.547.577.577,0,0,1,.547-.547A.533.533,0,0,1,247.564-173.643ZM250.3-172a.539.539,0,0,1-.376.922.577.577,0,0,1-.547-.547.577.577,0,0,1,.547-.547A.533.533,0,0,1,250.3-172Zm-4.373,1.64a.539.539,0,0,1-.376.922.577.577,0,0,1-.547-.547.577.577,0,0,1,.547-.547A.533.533,0,0,1,245.924-170.363Z" transform="translate(-226.962 196.636)" fill="#f90"/>
      <path id="Path_17830" data-name="Path 17830" d="M243.365-175.816a9.959,9.959,0,0,1-1.339,3.307,11.217,11.217,0,0,1-13.5,4.476,6.072,6.072,0,0,0-.67-.246,1.623,1.623,0,0,0-.307.478l-.246.471.485.2a12.256,12.256,0,0,0,7.482.649c4.53-1,8.534-4.831,9.163-8.753.041-.253.089-.533.109-.622.027-.144.014-.15-.553-.15S243.406-176,243.365-175.816Z" transform="translate(-213.955 196.636)" fill="#f90"/>
    </g>
  </g>
</svg>
