<svg xmlns="http://www.w3.org/2000/svg" width="13.519" height="13.527" viewBox="0 0 13.519 13.527">
  <g id="Group_2016" data-name="Group 2016" transform="translate(0 0)">
    <g id="Group_2015" data-name="Group 2015">
      <g id="Group_2014" data-name="Group 2014">
        <g id="Group_2013" data-name="Group 2013">
          <path id="Path_17968" data-name="Path 17968" d="M843.111,552.541a.6.6,0,0,0,.6-.6v-5.569h5.567a.612.612,0,0,0,.425-.175.6.6,0,0,0,.177-.425.594.594,0,0,0-.6-.6h-5.569V539.61a.6.6,0,0,0-1.192,0v5.567h-5.567a.6.6,0,1,0,0,1.192h5.567v5.569a.58.58,0,0,0,.586.6Zm0,0" transform="translate(-836.362 -539.014)" fill="#272a3f"/>
        </g>
      </g>
    </g>
  </g>
</svg>
