<svg xmlns="http://www.w3.org/2000/svg" width="14.619" height="14.619" viewBox="0 0 14.619 14.619">
  <path id="Icon_material-call" data-name="Icon material-call" d="M7.44,10.827a12.3,12.3,0,0,0,5.352,5.352l1.787-1.787a.808.808,0,0,1,.828-.195,9.265,9.265,0,0,0,2.9.463.815.815,0,0,1,.812.812v2.835a.815.815,0,0,1-.812.812A13.806,13.806,0,0,1,4.5,5.312.815.815,0,0,1,5.312,4.5H8.155a.815.815,0,0,1,.812.812,9.227,9.227,0,0,0,.463,2.9.815.815,0,0,1-.2.828L7.44,10.827Z" transform="translate(-4.5 -4.5)" fill="#323232"/>
</svg>
