<svg xmlns="http://www.w3.org/2000/svg" width="12.958" height="17.008" viewBox="0 0 12.958 17.008">
  <path id="Icon_material-lock" data-name="Icon material-lock" d="M17.339,7.169h-.81V5.549a4.049,4.049,0,0,0-8.1,0v1.62H7.62A1.625,1.625,0,0,0,6,8.789v8.1a1.625,1.625,0,0,0,1.62,1.62h9.719a1.625,1.625,0,0,0,1.62-1.62v-8.1A1.625,1.625,0,0,0,17.339,7.169Zm-4.859,7.289a1.62,1.62,0,1,1,1.62-1.62A1.625,1.625,0,0,1,12.479,14.458ZM14.99,7.169H9.969V5.549a2.511,2.511,0,1,1,5.021,0Z" transform="translate(-6 -1.5)" fill="#323232"/>
</svg>
