<svg xmlns="http://www.w3.org/2000/svg" width="16.808" height="15.515" viewBox="0 0 16.808 15.515">
  <path id="Icon_ionic-md-heart-empty" data-name="Icon ionic-md-heart-empty" d="M15.561,4.5a4.972,4.972,0,0,0-3.782,1.774A4.972,4.972,0,0,0,8,4.5,4.57,4.57,0,0,0,3.375,9.151c0,3.212,2.857,5.79,7.184,9.766l1.22,1.1,1.22-1.1c4.327-3.976,7.184-6.554,7.184-9.766A4.57,4.57,0,0,0,15.561,4.5ZM12.3,17.805l-.17.158-.347.315-.347-.315-.17-.158A51.356,51.356,0,0,1,6.3,12.876,5.928,5.928,0,0,1,4.672,9.151a3.361,3.361,0,0,1,.958-2.4A3.288,3.288,0,0,1,8,5.793a3.706,3.706,0,0,1,2.792,1.313l.99,1.176.99-1.176a3.692,3.692,0,0,1,2.792-1.313,3.3,3.3,0,0,1,2.372.962,3.368,3.368,0,0,1,.958,2.4,5.959,5.959,0,0,1-1.632,3.725A51.46,51.46,0,0,1,12.3,17.805Z" transform="translate(-3.375 -4.5)" fill="#9a9a9a"/>
</svg>
