<svg xmlns="http://www.w3.org/2000/svg" width="21.4" height="18.725" viewBox="0 0 21.4 18.725">
  <g id="menu-left-alt" transform="translate(-6 -7.5)">
    <path id="Path_17740" data-name="Path 17740" d="M6,8.837A1.337,1.337,0,0,1,7.337,7.5H26.062a1.337,1.337,0,0,1,0,2.675H7.337A1.337,1.337,0,0,1,6,8.837Z" transform="translate(0 0)"/>
    <path id="Path_17741" data-name="Path 17741" d="M6,26.837A1.337,1.337,0,0,1,7.337,25.5H26.062a1.337,1.337,0,0,1,0,2.675H7.337A1.337,1.337,0,0,1,6,26.837Z" transform="translate(0 -1.95)"/>
    <path id="Path_17742" data-name="Path 17742" d="M7.337,16.5a1.337,1.337,0,1,0,0,2.675h10.7a1.337,1.337,0,0,0,0-2.675Z" transform="translate(0 -0.975)"/>
  </g>
</svg>
