<svg xmlns="http://www.w3.org/2000/svg" width="20.651" height="21.076" viewBox="0 0 20.651 21.076">
  <g id="percentage" transform="translate(-4.919 0)">
    <g id="Group_3073" data-name="Group 3073" transform="translate(4.919 0)">
      <circle id="Ellipse_335" data-name="Ellipse 335" cx="0.881" cy="0.881" r="0.881" transform="translate(6.644 7.867)" fill="#38ab00"/>
      <circle id="Ellipse_336" data-name="Ellipse 336" cx="0.881" cy="0.881" r="0.881" transform="translate(12.241 11.443)" fill="#38ab00"/>
      <path id="Path_18877" data-name="Path 18877" d="M25.305,11.7l-.32-.436a1.375,1.375,0,0,1-.013-1.6l.311-.441a1.375,1.375,0,0,0-.475-2l-.475-.255a1.369,1.369,0,0,1-.7-1.438l.091-.531a1.372,1.372,0,0,0-1.3-1.6l-.54-.022a1.377,1.377,0,0,1-1.261-.989l-.151-.518A1.369,1.369,0,0,0,18.611.991l-.5.212A1.369,1.369,0,0,1,16.551.857l-.358-.4a1.369,1.369,0,0,0-2.056.017l-.354.406a1.373,1.373,0,0,1-1.559.367l-.5-.207a1.375,1.375,0,0,0-1.848.907l-.143.523A1.364,1.364,0,0,1,8.489,3.475l-.54.03a1.371,1.371,0,0,0-1.27,1.619l.1.531A1.369,1.369,0,0,1,6.1,7.1l-.471.263a1.37,1.37,0,0,0-.44,2.008l.32.436a1.375,1.375,0,0,1,.013,1.6l-.311.441a1.375,1.375,0,0,0,.475,2l.475.255a1.369,1.369,0,0,1,.7,1.438l-.091.531a1.372,1.372,0,0,0,1.3,1.6l.54.022a1.377,1.377,0,0,1,1.261.989l.151.518a1.369,1.369,0,0,0,1.861.877l.5-.212a1.369,1.369,0,0,1,1.563.345l.358.4a1.369,1.369,0,0,0,2.056-.017l.354-.406a1.373,1.373,0,0,1,1.559-.367l.5.207a1.375,1.375,0,0,0,1.848-.907l.143-.523A1.364,1.364,0,0,1,22,17.6l.54-.03a1.371,1.371,0,0,0,1.27-1.619l-.1-.531a1.369,1.369,0,0,1,.682-1.447l.471-.263A1.369,1.369,0,0,0,25.305,11.7ZM10.315,8.748a2.125,2.125,0,1,1,2.125,2.125A2.123,2.123,0,0,1,10.315,8.748Zm2.535,5.48a.52.52,0,0,1-.73.069h0a.52.52,0,0,1-.069-.73l5.575-6.715a.518.518,0,1,1,.8.661Zm5.191.22a2.125,2.125,0,1,1,2.125-2.125A2.123,2.123,0,0,1,18.041,14.448Z" transform="translate(-4.919 0)" fill="#38ab00"/>
    </g>
  </g>
</svg>
