<svg id="precision" xmlns="http://www.w3.org/2000/svg" width="19.542" height="19.542" viewBox="0 0 19.542 19.542">
  <g id="Group_3058" data-name="Group 3058" transform="translate(6.107 6.107)">
    <g id="Group_3057" data-name="Group 3057">
      <path id="Path_18869" data-name="Path 18869" d="M163.664,160a3.664,3.664,0,1,0,3.664,3.664A3.669,3.669,0,0,0,163.664,160Zm0,6.107a2.443,2.443,0,1,1,2.443-2.443A2.445,2.445,0,0,1,163.664,166.107Z" transform="translate(-160 -160)" fill="#323232"/>
    </g>
  </g>
  <g id="Group_3060" data-name="Group 3060">
    <g id="Group_3059" data-name="Group 3059">
      <path id="Path_18870" data-name="Path 18870" d="M18.932,9.161H17.069a7.333,7.333,0,0,0-6.687-6.687V.611a.611.611,0,0,0-1.221,0V2.473A7.334,7.334,0,0,0,2.473,9.161H.611a.611.611,0,0,0,0,1.221H2.473a7.333,7.333,0,0,0,6.687,6.687v1.863a.611.611,0,1,0,1.221,0V17.069a7.333,7.333,0,0,0,6.687-6.687h1.863a.611.611,0,1,0,0-1.221ZM9.771,15.878a6.107,6.107,0,1,1,6.107-6.107A6.114,6.114,0,0,1,9.771,15.878Z" fill="#323232"/>
    </g>
  </g>
</svg>
