<svg xmlns="http://www.w3.org/2000/svg" width="27.802" height="27.798" viewBox="0 0 27.802 27.798">
  <g id="snacks" transform="translate(0 511.923)">
    <path id="Path_17839" data-name="Path 17839" d="M3.079-511.852a2.315,2.315,0,0,0-1.146.657,2.441,2.441,0,0,0-.706,2.1A5.724,5.724,0,0,0,6.521-503.8a2.639,2.639,0,0,0,1.493-.261,2.454,2.454,0,0,0,1.292-1.776,2.442,2.442,0,0,0-1.9-2.769,2.988,2.988,0,0,0-.483-.06.873.873,0,0,1-.831-.836,2.491,2.491,0,0,0-.733-1.694A2.374,2.374,0,0,0,3.079-511.852Z" transform="translate(-1.151 0)" fill="#f90"/>
    <path id="Path_17840" data-name="Path 17840" d="M183.079-511.852a2.315,2.315,0,0,0-1.146.657,2.441,2.441,0,0,0-.706,2.1,5.724,5.724,0,0,0,5.294,5.294,2.639,2.639,0,0,0,1.493-.261,2.454,2.454,0,0,0,1.292-1.776,2.442,2.442,0,0,0-1.9-2.769,2.988,2.988,0,0,0-.483-.06.873.873,0,0,1-.831-.836,2.491,2.491,0,0,0-.733-1.694A2.374,2.374,0,0,0,183.079-511.852Z" transform="translate(-171.377 0)" fill="#f90"/>
    <path id="Path_17841" data-name="Path 17841" d="M363.079-511.852a2.315,2.315,0,0,0-1.146.657,2.441,2.441,0,0,0-.706,2.1,5.724,5.724,0,0,0,5.294,5.294,2.639,2.639,0,0,0,1.493-.261,2.454,2.454,0,0,0,1.292-1.776,2.442,2.442,0,0,0-1.9-2.769,2.988,2.988,0,0,0-.483-.06.873.873,0,0,1-.831-.836,2.491,2.491,0,0,0-.733-1.694A2.374,2.374,0,0,0,363.079-511.852Z" transform="translate(-341.603 0)" fill="#f90"/>
    <path id="Path_17842" data-name="Path 17842" d="M77.552-331.913a3.318,3.318,0,0,0-2.389,2.194c-.054.2-.114.434-.13.527l-.033.179H94.657l-.033-.179c-.016-.092-.076-.331-.13-.527A3.313,3.313,0,0,0,91.366-332a3.882,3.882,0,0,0-1.368.32l-.217.114-.32-.141a3.314,3.314,0,0,0-2.7.005l-.3.141-.223-.114A3.813,3.813,0,0,0,84.828-332a3.81,3.81,0,0,0-1.4.32l-.217.114-.32-.141a3.314,3.314,0,0,0-2.7.005l-.3.141-.223-.114A3.367,3.367,0,0,0,77.552-331.913Z" transform="translate(-70.927 -170.153)" fill="#f90"/>
    <path id="Path_17843" data-name="Path 17843" d="M0-245.914c0,.6.027,1.325.06,1.618A10.654,10.654,0,0,0,5.131-236.3a10.874,10.874,0,0,0,1.531.76,6.1,6.1,0,0,1,.51.977l.451.977H20.178l.445-.967.451-.961.364-.147c.2-.081.614-.293.923-.462a10.625,10.625,0,0,0,4.887-5.908,10.917,10.917,0,0,0,.554-3.883V-247H25.369l-.027,1.341a8.86,8.86,0,0,1-.147,1.89,8.183,8.183,0,0,1-6.407,6.391c-.57.125-.581.125-4.887.125s-4.317,0-4.887-.125a8.147,8.147,0,0,1-4.219-2.3,6.129,6.129,0,0,1-.977-1.189,8.282,8.282,0,0,1-1.211-2.905,8.86,8.86,0,0,1-.147-1.89L2.433-247H0Z" transform="translate(0 -250.538)" fill="#f90"/>
    <path id="Path_17844" data-name="Path 17844" d="M74.827-245.713a10.392,10.392,0,0,0,.114,1.662,6.528,6.528,0,0,0,1.792,3.274,6.4,6.4,0,0,0,2.574,1.591c.945.31.9.3,5.359.3a28.022,28.022,0,0,0,4.588-.1,6.6,6.6,0,0,0,4.86-4.29,6.455,6.455,0,0,0,.337-2.438L94.479-247H74.8Z" transform="translate(-70.738 -250.538)" fill="#f90"/>
  </g>
</svg>
