<svg xmlns="http://www.w3.org/2000/svg" width="27.503" height="27.482" viewBox="0 0 27.503 27.482">
  <g id="vegetable-_1_" transform="translate(-24 487.864)">
    <path id="Path_17797" data-name="Path 17797" d="M46.122-487.778a1.917,1.917,0,0,0-1.156,1.079l-.13.273h-.468a1.862,1.862,0,0,0-1.879,1.553l-.077.338-.362.13a2.858,2.858,0,0,0-1.885,2.027,2.859,2.859,0,0,0,1.517,3.219c.207.107.391.2.4.213a2.38,2.38,0,0,1-.2.367,1.822,1.822,0,0,0-.3,1.654,2.006,2.006,0,0,0,.741,1.031c.178.136.332.249.344.261a2.372,2.372,0,0,1-.113.445,1.937,1.937,0,0,0,.385,1.879,2.051,2.051,0,0,0,1.3.593l.439.036.545,1.547c.3.848.575,1.606.6,1.677l.047.13.373-.16c.207-.083.385-.16.4-.172a.952.952,0,0,0-.19-.249,2.817,2.817,0,0,1-.676-2.051l.03-.474-.255-.273a2.78,2.78,0,0,1-.723-2.069,3.257,3.257,0,0,1,.119-.682l.083-.237-.486-.474a3.63,3.63,0,0,1-1.138-2.9,3.815,3.815,0,0,1,2.14-3.207.66.66,0,0,0,.427-.462,2.888,2.888,0,0,1,2.169-1.766c.326-.059.409-.095.486-.231a3.457,3.457,0,0,1,1.12-.948,1.057,1.057,0,0,0,.338-.184c0-.1-.581-.125-1-.036l-.433.083-.03-.148c-.2-.978-.427-1.34-1.037-1.666A1.937,1.937,0,0,0,46.122-487.778Z" transform="translate(-15.128 0)" fill="#449100"/>
    <path id="Path_17798" data-name="Path 17798" d="M118.122-439.778a1.917,1.917,0,0,0-1.156,1.079l-.13.273h-.468a1.862,1.862,0,0,0-1.879,1.553l-.077.338-.362.13a2.858,2.858,0,0,0-1.885,2.027,2.859,2.859,0,0,0,1.517,3.219c.207.107.391.2.4.213a2.382,2.382,0,0,1-.2.368,1.822,1.822,0,0,0-.3,1.654,2.007,2.007,0,0,0,.741,1.031c.178.136.332.249.344.261a2.368,2.368,0,0,1-.113.444,1.833,1.833,0,0,0,.492,1.968,2.031,2.031,0,0,0,1.34.545c.237.018,1.025.13,1.743.243l1.322.207c.006,0-.041-.207-.107-.462a7.171,7.171,0,0,1-.136-1.879l-.012-1.423-.225-.16a6.408,6.408,0,0,0-2.655-.788l-.45-.042v-.936h.166a8.893,8.893,0,0,1,2.655.563.968.968,0,0,0,.368.119,7.16,7.16,0,0,0-.533-1.672c-.4-1.073-.439-1.126-1.132-1.44a4.735,4.735,0,0,0-2.009-.4l-.877-.036-.024-.184c-.018-.1-.042-.308-.059-.468l-.036-.279h.735a7.315,7.315,0,0,1,2.045.267.707.707,0,0,0,.3.059,19.088,19.088,0,0,0-1.138-2.258l-.373-.658.385-.249.391-.249.089.13a31.165,31.165,0,0,1,1.488,2.786,7.821,7.821,0,0,0,.409.824,2.546,2.546,0,0,0,.231-.444,7.917,7.917,0,0,1,1.363-2,3.042,3.042,0,0,1,.492-.462c.018.018.148.184.3.373l.279.35-.326.332a6.643,6.643,0,0,0-1.654,2.922l-.107.391.279.806.279.812.308-.522a5.968,5.968,0,0,1,.984-1.2c.842-.854,1.15-1.02,1.855-1.025l.468-.006-.041-.29a2.185,2.185,0,0,0-.563-1.12l-.249-.279.249-.285a1.76,1.76,0,0,0,.557-1.375,1.407,1.407,0,0,0-.154-.806,1.67,1.67,0,0,0-.806-.842,1.931,1.931,0,0,0-1.423-.172l-.368.083-.036-.154c-.018-.083-.059-.273-.089-.415a1.825,1.825,0,0,0-.948-1.251A1.936,1.936,0,0,0,118.122-439.778Z" transform="translate(-82.86 -45.155)" fill="#449100"/>
    <path id="Path_17799" data-name="Path 17799" d="M345.15-375.838a.8.8,0,0,0-.35.373l-.125.255.225,2.442c.124,1.375.2,2.466.172,2.49a1.744,1.744,0,0,1-.332.148c-.344.124-.557.29-.5.385a1.7,1.7,0,0,0,.854.362,2.58,2.58,0,0,0,1.921-.338c.095-.119-.071-.261-.474-.409a1.745,1.745,0,0,1-.332-.148c-.03-.024.047-1.114.172-2.49l.225-2.442-.124-.255A.976.976,0,0,0,345.15-375.838Z" transform="translate(-301.252 -105.271)" fill="#449100"/>
    <path id="Path_17800" data-name="Path 17800" d="M250.456-303.817a5.8,5.8,0,0,0-1.429,1.411,6.891,6.891,0,0,0-.848,1.826,12.138,12.138,0,0,0-.113,3.1,4.428,4.428,0,0,0,.356,1.268c.036.024,1.523.273,1.624.273.018,0,0-.113-.036-.255a15.081,15.081,0,0,1-.071-2.057,8.353,8.353,0,0,1,.13-2.324,6.836,6.836,0,0,1,1.316-2.7c.326-.4.32-.415-.071-.581A.957.957,0,0,0,250.456-303.817Z" transform="translate(-210.737 -173.024)" fill="#449100"/>
    <path id="Path_17801" data-name="Path 17801" d="M427.255-303.772a.714.714,0,0,0-.255.148,4.337,4.337,0,0,0,.332.462,7.428,7.428,0,0,1,1.322,3.207,25.585,25.585,0,0,1,.006,3.5,7.289,7.289,0,0,1-.445,1.666,1.069,1.069,0,0,0-.125.362,4.709,4.709,0,0,0,.836.136c.184,0,.759-.765,1.1-1.452a5.1,5.1,0,0,0,.563-2.934,5.762,5.762,0,0,0-.136-1.838,5.847,5.847,0,0,0-1.565-2.679C428.186-303.879,427.788-304.015,427.255-303.772Z" transform="translate(-379.113 -173.075)" fill="#449100"/>
    <path id="Path_17802" data-name="Path 17802" d="M298.77-302.822a6.386,6.386,0,0,0-1.31,1.381,6.9,6.9,0,0,0-.818,1.82,7.011,7.011,0,0,0-.142,2.163,7.448,7.448,0,0,0,.2,2.5,26.292,26.292,0,0,0,2.786.468,2.2,2.2,0,0,0-.059-.427,41.937,41.937,0,0,1-.03-4.6l.047-.456-.208-.089a1.923,1.923,0,0,1-.788-.729.935.935,0,0,1,.006-.747,1.747,1.747,0,0,1,.64-.67c.077-.024.107-.095.107-.225,0-.261-.065-.569-.119-.569A2.208,2.208,0,0,0,298.77-302.822Z" transform="translate(-256.348 -173.907)" fill="#449100"/>
    <path id="Path_17803" data-name="Path 17803" d="M362.192-302.652c-.071.356-.042.575.077.617a1.663,1.663,0,0,1,.379.32.927.927,0,0,1,.03,1.4,2.9,2.9,0,0,1-2.039.735c-.326,0-.367.012-.409.13-.024.077-.059.9-.071,1.838a14.14,14.14,0,0,0,.166,3.195l.059.267,1.82.279c1,.154,1.861.279,1.921.279a3.151,3.151,0,0,0,.6-1.351,7.832,7.832,0,0,0,.124-2.235c.006-1.944-.012-2.092-.379-3.035a5.887,5.887,0,0,0-1.82-2.442C362.3-302.883,362.239-302.883,362.192-302.652Z" transform="translate(-316.225 -174.071)" fill="#449100"/>
    <path id="Path_17804" data-name="Path 17804" d="M108.179-167.638a4.075,4.075,0,0,0-2.246,1.209,4.08,4.08,0,0,0-1.079,1.719,3.2,3.2,0,0,0-.154,1.274,3.2,3.2,0,0,0,.154,1.274,4.081,4.081,0,0,0,1.079,1.719,4,4,0,0,0,2.786,1.257c.557.03,1.079-.047,8.921-1.251,4.582-.705,8.423-1.31,8.535-1.34a1.786,1.786,0,0,0,1.245-1.66,1.786,1.786,0,0,0-1.245-1.66c-.113-.03-3.942-.628-8.506-1.334C109.264-167.721,108.92-167.763,108.179-167.638Zm1.221,4.2v2.371h-.948v-4.742h.948Zm3.794,0v2.371h-.948v-4.742h.948Zm3.794,0v2.371h-.948v-4.742h.948Zm3.794,0v1.423h-.948v-2.845h.948Zm3.794,0v.948h-.948v-1.9h.948Z" transform="translate(-75.917 -301.201)" fill="#449100"/>
    <path id="Path_17805" data-name="Path 17805" d="M48.119-135.881a.485.485,0,0,0-.119.356.485.485,0,0,0,.119.356c.113.113.2.119,1.292.119h1.168l.065-.213c.053-.154.053-.219,0-.237-.136-.047-2.229-.5-2.318-.5A.4.4,0,0,0,48.119-135.881Z" transform="translate(-22.577 -331.008)" fill="#449100"/>
    <path id="Path_17806" data-name="Path 17806" d="M24.148-103.852a.462.462,0,0,0-.148.326.462.462,0,0,0,.148.326l.142.148h3.5V-104h-3.5Z" transform="translate(0 -361.111)" fill="#449100"/>
    <path id="Path_17807" data-name="Path 17807" d="M48.134-71.881c-.237.237-.089.83.207.83.089,0,2.181-.45,2.318-.5.053-.018.053-.083,0-.237L50.594-72H49.426C48.33-72,48.247-71.994,48.134-71.881Z" transform="translate(-22.593 -391.214)" fill="#449100"/>
  </g>
</svg>
